<?xml version="1.0" standalone="no"?>
<!DOCTYPE svg PUBLIC "-//W3C//DTD SVG 1.1//EN" "http://www.w3.org/Graphics/SVG/1.1/DTD/svg11.dtd" >
<svg xmlns="http://www.w3.org/2000/svg" xmlns:xlink="http://www.w3.org/1999/xlink" version="1.1">
<metadata>
Created by FontForge 20170924 at Fri Jan  1 00:00:00 1904
 By www-data
(c) !22! Soft 1992
</metadata>
<defs>
<font id="FuturaLightLight" horiz-adv-x="1843" >
  <font-face 
    font-family="FuturaLight"
    font-weight="400"
    font-stretch="normal"
    units-per-em="4096"
    panose-1="2 11 114 0 0 0 0 0 0 0"
    ascent="3276"
    descent="-820"
    x-height="1585"
    cap-height="2621"
    bbox="-45 -1192 3805 3424"
    underline-thickness="35"
    underline-position="157"
    unicode-range="U+0020-2219"
  />
<missing-glyph horiz-adv-x="3072" 
d="M512 0v2560h2048v-2560h-2048zM2494 66v2428h-1916v-2428h1916z" />
    <glyph glyph-name=".notdef" horiz-adv-x="3072" 
d="M512 0v2560h2048v-2560h-2048zM2494 66v2428h-1916v-2428h1916z" />
    <glyph glyph-name=".null" horiz-adv-x="0" 
 />
    <glyph glyph-name="glyph2" horiz-adv-x="1024" 
 />
    <glyph glyph-name="nonmarkingreturn" horiz-adv-x="1024" 
 />
    <glyph glyph-name="space" unicode=" " horiz-adv-x="1253" 
 />
    <glyph glyph-name="exclam" unicode="!" horiz-adv-x="778" 
d="M295 2675h221v-2134h-221v2134zM295 311h221v-311h-221v311z" />
    <glyph glyph-name="quotedbl" unicode="&#x22;" horiz-adv-x="950" 
d="M635 2564h156v-987h-156v987zM164 2564h151v-987h-151v987z" />
    <glyph glyph-name="numbersign" unicode="#" horiz-adv-x="2621" 
d="M1143 1548l-176 -504h483l176 504h-483zM1315 2601h201l-312 -893h484l315 893h197l-312 -893h574l-58 -160h-573l-180 -504h622l-53 -163h-631l-311 -881h-201l316 881h-484l-319 -881h-201l311 881h-594l54 163h602l180 504h-643l49 160h651z" />
    <glyph glyph-name="dollar" unicode="$" horiz-adv-x="1942" 
d="M1061 1270v-1065q196 24 307 155q111 127 111 332q0 377 -418 578zM557 2011q0 -135 90 -229q86 -99 271 -205v844q-361 -74 -361 -410zM1061 -295h-143v303q-222 0 -398 98q-176 95 -311 386l209 98q135 -352 500 -389v1138q-316 152 -455 303q-139 152 -139 410
q0 193 143 361q143 163 451 208v177h143v-177q192 -28 311 -98q115 -74 213 -217l-188 -106q-115 188 -336 221v-910q344 -155 495 -348q148 -196 148 -475q0 -196 -82 -348q-86 -156 -229 -242q-148 -86 -332 -98v-295z" />
    <glyph glyph-name="percent" unicode="%" horiz-adv-x="2580" 
d="M614 2478q-159 0 -241 -135q-86 -139 -86 -385q0 -492 319 -492q316 0 316 512q0 500 -308 500zM70 1962q0 283 135 483q131 201 409 201q250 0 385 -180q131 -180 131 -484q0 -327 -143 -507q-147 -181 -385 -181q-225 0 -377 181q-155 180 -155 487zM446 -66l1508 2708
h192l-1499 -2708h-201zM2019 1122q-159 0 -241 -135q-86 -139 -86 -385q0 -491 319 -491q316 0 316 512q0 499 -308 499zM1475 606q0 283 135 484q131 200 409 200q250 0 385 -180q131 -180 131 -483q0 -328 -143 -508q-147 -180 -385 -180q-225 0 -377 180
q-155 180 -155 487z" />
    <glyph glyph-name="ampersand" unicode="&#x26;" horiz-adv-x="2335" 
d="M881 143q348 0 675 394l-679 839q-99 -61 -222 -147q-127 -86 -221 -221q-98 -136 -98 -316q0 -237 164 -393t381 -156zM1012 2429q-115 0 -226 -70q-110 -69 -110 -250q0 -167 266 -487q62 45 139 98q74 49 131 107q58 53 90.5 122.5t32.5 168.5q0 311 -323 311zM2007 0
l-324 385q-184 -201 -352 -311q-172 -115 -454 -115q-312 0 -541 184q-230 181 -230 541q0 172 66 303t205 250q135 119 385 287q-172 221 -242 331q-69 111 -69 271q0 110 53 221q53 107 180 184q127 74 332 74q221 0 377 -131q151 -131 151 -324q0 -172 -94 -319
q-94 -152 -393 -348l647 -799q111 127 311 434l156 -90q-225 -344 -356 -500l454 -528h-262z" />
    <glyph glyph-name="quotesingle" unicode="'" horiz-adv-x="369" 
d="M119 2564h151v-987h-151v987z" />
    <glyph glyph-name="parenleft" unicode="(" horiz-adv-x="942" 
d="M385 971q0 -406 69.5 -778.5t315.5 -888.5l-168 -99q-283 594 -352.5 991.5t-69.5 839.5q0 283 37 541q33 254 131 557q94 299 254 606l168 -86q-123 -262 -209 -545q-90 -282 -131 -569q-45 -287 -45 -569z" />
    <glyph glyph-name="parenright" unicode=")" horiz-adv-x="942" 
d="M557 971q0 446 -94 860q-98 410 -291 823l168 86q160 -307 258 -606q94 -303 131 -557q33 -258 33 -541q0 -291 -17 -516q-20 -229 -114 -565q-94 -340 -291 -750l-168 99q168 352 258 659q86 303 107 516q20 209 20 492z" />
    <glyph glyph-name="asterisk" unicode="*" horiz-adv-x="1352" 
d="M188 1659l-77 135l417 221l-417 234l77 139l410 -262l-12 495h159l-20 -495l414 258l78 -135l-418 -234l418 -221l-87 -135l-405 246l16 -475h-151l8 475z" />
    <glyph glyph-name="plus" unicode="+" horiz-adv-x="2621" 
d="M1237 2179h139v-1016h1004v-147h-1004v-1016h-139v1016h-999v147h999v1016z" />
    <glyph glyph-name="comma" unicode="," horiz-adv-x="852" 
d="M254 315h344v-274q0 -258 -78 -377t-266 -180v156q90 36 119 102q37 65 37 192v62h-156v319z" />
    <glyph glyph-name="hyphen" unicode="-" horiz-adv-x="1065" 
d="M139 901h787v-229h-787v229z" />
    <glyph glyph-name="period" unicode="." horiz-adv-x="778" 
d="M598 0h-344v315h344v-315z" />
    <glyph glyph-name="slash" unicode="/" horiz-adv-x="1516" 
d="M1323 2675h193l-1287 -3011h-188z" />
    <glyph glyph-name="zero" unicode="0" horiz-adv-x="1999" 
d="M995 2433q-188 0 -331 -135q-144 -139 -218 -402q-77 -266 -77 -614q0 -549 168 -844t479 -295q626 0 626 1139q0 578 -147 864q-152 287 -500 287zM131 1290q0 729 258 1041q254 311 606 311q398 0 639 -295q242 -299 242 -1081q0 -570 -201 -951q-205 -381 -671 -381
q-435 0 -652 390q-221 385 -221 966z" />
    <glyph glyph-name="one" unicode="1" horiz-adv-x="975" 
d="M541 0v2384h-471l110 209h590v-2593h-229z" />
    <glyph glyph-name="two" unicode="2" horiz-adv-x="1917" 
d="M1753 201v-201h-1683l602 639q368 381 545 602q172 217 229 377q57 156 57 352q0 463 -573 463q-570 0 -570 -618h-233q0 831 823 831q267 0 447 -82q180 -86 274 -229q90 -148 90 -320q0 -291 -139 -565q-143 -274 -492 -631l-606 -622z" />
    <glyph glyph-name="three" unicode="3" horiz-adv-x="1942" 
d="M926 1479q282 0 405 135t123 340q0 209 -119 348q-118 135 -389 135q-422 0 -500 -422h-258q136 627 750 627q381 0 569 -188q189 -189 189 -492q0 -438 -447 -606q492 -160 492 -611q0 -352 -205 -581q-209 -230 -627 -230q-319 0 -561 172q-246 168 -262 553h254
q49 -520 578 -520q245 0 413 131q164 131 164 430q0 263 -156 406q-155 143 -438 143h-94v230h119z" />
    <glyph glyph-name="four" unicode="4" horiz-adv-x="1802" 
d="M406 864h823v1180zM1229 0v664h-1176l1413 2015v-1815h271v-200h-271v-664h-237z" />
    <glyph glyph-name="five" unicode="5" horiz-adv-x="1884" 
d="M942 1663q324 0 561 -205q238 -209 238 -622q0 -443 -258 -672.5t-635 -229.5q-205 0 -434 119q-234 119 -365 373l184 143q234 -426 615 -426q282 0 467 181q180 176 180 487t-168 483q-172 168 -487 168q-295 0 -537 -192l-70 8l332 1315h1061v-201h-897l-205 -815
q205 86 418 86z" />
    <glyph glyph-name="six" unicode="6" horiz-adv-x="1999" 
d="M1016 1343q-287 0 -455 -172t-168 -458q0 -254 143.5 -426t417.5 -172q271 0 451 184q176 180 176 467q0 143 -65 278q-66 132 -189 218q-127 81 -311 81zM1053 1569q221 0 397 -107q172 -110 266 -291q94 -180 94 -401q0 -364 -213 -602q-217 -238 -663 -238
q-336 0 -557 221.5t-221 577.5q0 221 65 397q66 172 143.5 287t303.5 430l610 852l197 -119l-844 -1138q262 131 422 131z" />
    <glyph glyph-name="seven" unicode="7" horiz-adv-x="1966" 
d="M291 37l1196 2355h-1262v201h1606l-1319 -2667z" />
    <glyph glyph-name="eight" unicode="8" horiz-adv-x="2040" 
d="M1020 1499q221 0 364 119q140 119 140 340q0 471 -492 471q-520 0 -520 -467q0 -197 156 -328q151 -135 352 -135zM1610 713q0 209 -135 393q-140 184 -451 184q-274 0 -434 -151.5t-160 -417.5q0 -258 160 -418t430 -160q283 0 438 164q152 160 152 406zM283 1987
q0 262 192 458q189 197 553 197q356 0 545 -193q184 -196 184 -475q0 -180 -115 -344q-114 -164 -299 -217q512 -172 512 -708q0 -340 -200 -553q-205 -218 -635 -218q-373 0 -602 205q-234 201 -234 570q0 536 516 704q-168 62 -290 205q-127 143 -127 369z" />
    <glyph glyph-name="nine" unicode="9" horiz-adv-x="2007" 
d="M967 1229q282 0 454 176q168 172 168 455q0 254 -143 426t-418 172q-176 0 -319 -82q-144 -86 -226 -230q-82 -147 -82 -340q0 -225 156 -401q152 -176 410 -176zM930 1004q-336 0 -545 233q-213 229 -213 565q0 365 217 602q213 238 660 238q225 0 401 -98.5t279 -278.5
q98 -184 98 -422q0 -307 -98 -487q-99 -185 -414 -627l-610 -852l-197 119l844 1139q-262 -131 -422 -131z" />
    <glyph glyph-name="colon" unicode=":" horiz-adv-x="778" 
d="M565 0h-344v315h344v-315zM569 1118h-344v320h344v-320z" />
    <glyph glyph-name="semicolon" unicode=";" horiz-adv-x="836" 
d="M217 315h344v-274q0 -258 -78 -377q-77 -119 -266 -180v156q90 36 119 102q37 65 37 192v62h-156v319zM569 1118h-344v320h344v-320z" />
    <glyph glyph-name="less" unicode="&#x3c;" horiz-adv-x="2580" 
d="M2339 2011v-160l-1872 -761l1872 -758v-156l-2110 860v111z" />
    <glyph glyph-name="equal" unicode="=" horiz-adv-x="2621" 
d="M246 840h2142v-148h-2142v148zM246 1483h2142v-140h-2142v140z" />
    <glyph glyph-name="greater" unicode="&#x3e;" horiz-adv-x="2580" 
d="M242 2011l2109 -864v-111l-2109 -860v156l1872 758l-1872 761v160z" />
    <glyph glyph-name="question" unicode="?" horiz-adv-x="1556" 
d="M344 1958h-217q0 299 168 512q164 209 442 209q324 0 484 -119q159 -123 159 -410q0 -245 -102 -376q-107 -136 -442 -385q-205 -152 -291 -246q-86 -99 -86 -230t86 -192q82 -62 209 -62q147 0 245 91q95 86 95 266h200q0 -250 -139 -398q-139 -147 -389 -147
q-225 0 -381 115q-156 110 -156 315q0 152 70 270q66 119 172 205q107 86 356 266q193 140 263 242q61 98 61 250v16q0 168 -98 254q-103 82 -279 82q-192 0 -311 -143t-119 -385zM582 295h303v-295h-303v295z" />
    <glyph glyph-name="at" unicode="@" horiz-adv-x="3482" 
d="M1470 217q-229 0 -376 164q-152 160 -152 426q0 401 233.5 688t593.5 287q340 0 459 -303l111 229h147l-250 -975q-36 -147 -36 -209q0 -168 196 -168q283 0 529 267q241 266 241 761q0 234 -123 484q-123 246 -413 418q-295 168 -754 168q-299 0 -573 -95
q-279 -94 -508 -291q-234 -200 -365 -491t-131 -655q0 -574 393 -930q389 -357 1024 -357t1155 349l54 -86q-549 -390 -1188 -390q-406 0 -774 148q-373 147 -611 471q-237 324 -237 811q0 455 217 831q217 377 614 603q397 221 926 221q287 0 549 -66q258 -69 471 -213
q209 -147 332 -377q122 -233 122 -561q0 -516 -274 -839.5t-696 -323.5q-353 0 -353 303q0 33 5 37q-185 -336 -558 -336zM2191 1286q-69 365 -417 365q-271 0 -451 -242q-184 -242 -184 -606q0 -197 98 -324t291 -127q176 0 344 140q164 139 209 344z" />
    <glyph glyph-name="A" unicode="A" horiz-adv-x="2286" 
d="M1139 2232l-463 -1142h913zM12 0l1147 2720l1098 -2720h-254l-340 885h-1069l-348 -885h-234z" />
    <glyph glyph-name="B" unicode="B" 
d="M209 0v2621h668q352 0 532 -159.5t180 -524.5q0 -442 -401 -561q225 -33 377 -192q147 -164 147 -426q0 -758 -840 -758h-663zM451 1442h352q540 0 540 487q0 479 -499 479h-393v-966zM795 201q368 0 520 135q147 131 147 389q0 283 -143 401q-143 119 -483 119h-385
v-1044h344z" />
    <glyph glyph-name="C" unicode="C" horiz-adv-x="2523" 
d="M1511 2466q-344 0 -598 -144q-254 -143 -389 -405q-139 -266 -139 -614q0 -537 307 -848.5t807 -311.5q438 0 840 312l-4 -279q-181 -110 -393 -172q-218 -61 -455 -61q-311 0 -619 114q-307 115 -524 418q-221 303 -221 815q0 377 143 692q140 312 455 504
q315 193 795 193q442 0 843 -279l-8 -262q-147 127 -344 229q-201 99 -496 99z" />
    <glyph glyph-name="D" unicode="D" horiz-adv-x="2376" 
d="M209 0v2621h758q422 0 700 -143q279 -143 422 -438t143 -729q0 -705 -352 -1008q-356 -303 -930 -303h-741zM844 2425l-393 -4v-2220l434 -4q438 0 684 159q241 160 327 406q82 246 82 549q0 475 -209 803q-200 311 -876 311h-49z" />
    <glyph glyph-name="E" unicode="E" horiz-adv-x="1638" 
d="M201 0v2621h1298v-225h-1057v-819h1057v-225h-1057v-1131h1057v-221h-1298z" />
    <glyph glyph-name="F" unicode="F" horiz-adv-x="1638" 
d="M217 0v2621h1299v-225h-1057v-819h1016v-225h-1016v-1352h-242z" />
    <glyph glyph-name="G" unicode="G" horiz-adv-x="2908" 
d="M1466 2462q-331 0 -581 -156q-250 -160 -381 -430q-131 -274 -131 -590q0 -508 327 -823q328 -316 791 -316q377 0 680 222q303 217 303 716h-905v205h1167v-20q0 -639 -332 -987q-331 -349 -995 -349q-365 0 -659 181q-299 176 -467 491q-168 312 -168 672
q0 299 127 623q123 323 434 553q307 229 803 229q225 0 430 -62q205 -61 372 -188q168 -131 279 -324l-168 -147q-364 500 -926 500z" />
    <glyph glyph-name="H" unicode="H" horiz-adv-x="2343" 
d="M217 0v2621h242v-1065h1421v1065h242v-2621h-242v1352h-1421v-1352h-242z" />
    <glyph glyph-name="I" unicode="I" horiz-adv-x="573" 
d="M184 0v2621h242v-2621h-242z" />
    <glyph glyph-name="J" unicode="J" horiz-adv-x="1270" 
d="M827 598v2023h238v-2056q0 -311 -123 -467q-123 -155 -446 -155q-340 0 -496 258l172 151q111 -200 328 -200q188 0 258 106q69 107 69 340z" />
    <glyph glyph-name="K" unicode="K" horiz-adv-x="2130" 
d="M225 0v2621h242v-1228l1180 1228h311l-1241 -1257l1302 -1364h-344l-1208 1327v-1327h-242z" />
    <glyph glyph-name="L" unicode="L" horiz-adv-x="1475" 
d="M209 0v2621h242v-2400h897v-221h-1139z" />
    <glyph glyph-name="M" unicode="M" horiz-adv-x="2908" 
d="M1446 -94l-918 2093l-200 -1999h-246l356 2732l1004 -2335l1040 2335l340 -2732h-246l-192 1999z" />
    <glyph glyph-name="N" unicode="N" horiz-adv-x="2417" 
d="M184 0v2732l1856 -2200v2089h221v-2695l-1851 2192v-2118h-226z" />
    <glyph glyph-name="O" unicode="O" horiz-adv-x="3080" 
d="M1491 139q319 0 581.5 151.5t413.5 414.5q152 258 152 585q0 283 -127 553q-131 271 -389 447t-623 176q-262 0 -528 -127q-271 -131 -447 -393q-176 -267 -176 -639q0 -312 143.5 -578t409.5 -426q262 -164 590 -164zM1491 -66q-369 0 -688 160q-324 160 -516 471
q-193 312 -193 750q0 409 201 721q201 307 528 475q328 168 684 168q312 0 561 -107q250 -106 435 -295q184 -188 286 -442q103 -258 103 -541q0 -405 -189 -716q-188 -312 -508 -476q-319 -168 -704 -168z" />
    <glyph glyph-name="P" unicode="P" horiz-adv-x="1720" 
d="M680 1384q348 0 491 119q144 115 144 389q0 516 -656 516h-233v-1024h254zM672 1171h-246v-1171h-242v2621h455q430 0 684 -167q250 -168 250 -545q0 -430 -250 -582q-250 -156 -651 -156z" />
    <glyph glyph-name="Q" unicode="Q" horiz-adv-x="3088" 
d="M2159 365l-611 708h291l492 -569q311 311 311 799q0 262 -123 532q-123 266 -393 451q-271 180 -684 180q-303 0 -553 -160q-254 -164 -397 -434q-144 -275 -144 -569q0 -500 336 -828t819 -328q389 0 656 218zM2916 -180h-286l-316 364q-377 -233 -815 -233
q-344 0 -610 123q-271 119 -443 315q-176 197 -262 438q-86 242 -86 476q0 426 193 737q192 307 503.5 471t655.5 164q397 0 725 -160q328 -164 524 -475q197 -316 197 -746q0 -561 -418 -962z" />
    <glyph glyph-name="R" unicode="R" horiz-adv-x="1925" 
d="M1810 0h-290l-922 1245h-139v-1245h-242v2621h483q844 0 844 -716q0 -340 -209 -492q-213 -151 -471 -168zM643 1442q303 0 475 90q172 86 172 385q0 270 -151 385q-152 111 -492 111h-188v-971h184z" />
    <glyph glyph-name="S" unicode="S" horiz-adv-x="1638" 
d="M57 438l209 111q131 -414 529 -414q229 0 381 139q151 140 151 410q0 274 -164 410q-49 45 -286 184q-242 139 -349 213q-163 119 -262 250q-98 127 -98 311q0 279 188 455q185 172 496 172q176 0 311 -53.5t267 -278.5l-185 -111q-135 234 -414 234q-172 0 -294 -111
q-123 -110 -123 -315q0 -266 291 -430q221 -115 327 -172q107 -58 189 -115q348 -237 348 -627q0 -192 -78 -364q-78 -176 -246 -287q-172 -115 -446 -115q-226 0 -410 95q-188 94 -332 409z" />
    <glyph glyph-name="T" unicode="T" horiz-adv-x="1761" 
d="M762 0v2396h-717v225h1679v-225h-720v-2396h-242z" />
    <glyph glyph-name="U" unicode="U" horiz-adv-x="2253" 
d="M156 2621h237v-1716q0 -352 185 -557q180 -205 532 -205q389 0 553 189q160 184 160 573v1716h237v-1638q0 -549 -229 -799t-721 -250q-479 0 -717 275q-237 274 -237 774v1638z" />
    <glyph glyph-name="V" unicode="V" horiz-adv-x="2089" 
d="M1032 -94l-1020 2715h267l757 -2134l795 2134h262z" />
    <glyph glyph-name="W" unicode="W" horiz-adv-x="3277" 
d="M942 -94l-909 2715h254l655 -2093l696 2192l721 -2175l631 2076h246l-877 -2715l-721 2216z" />
    <glyph glyph-name="X" unicode="X" 
d="M258 0h-254l787 1376l-713 1245h262l590 -1044l594 1044h258l-721 -1237l794 -1384h-262l-667 1159z" />
    <glyph glyph-name="Y" unicode="Y" horiz-adv-x="2007" 
d="M885 0v1204l-869 1417h287l705 -1204l704 1204h270l-860 -1417v-1204h-237z" />
    <glyph glyph-name="Z" unicode="Z" horiz-adv-x="2048" 
d="M33 0l1556 2400h-1327v221h1737l-1548 -2400h1392v-221h-1810z" />
    <glyph glyph-name="bracketleft" unicode="[" horiz-adv-x="942" 
d="M262 2675h524v-172h-311v-3056h311v-180h-524v3408z" />
    <glyph glyph-name="backslash" unicode="\" horiz-adv-x="1516" 
d="M1323 -336l-1282 3011h188l1287 -3011h-193z" />
    <glyph glyph-name="bracketright" unicode="]" horiz-adv-x="942" 
d="M786 2675v-3408h-524v180h311v3056h-311v172h524z" />
    <glyph glyph-name="asciicircum" unicode="^" horiz-adv-x="1434" 
d="M205 1843l381 627h262l381 -627h-164l-344 447l-348 -447h-168z" />
    <glyph glyph-name="underscore" unicode="_" 
d="M4 -713h1831v-147h-1831v147z" />
    <glyph glyph-name="grave" unicode="`" horiz-adv-x="1188" 
d="M942 1843h-172l-508 627h295z" />
    <glyph glyph-name="a" unicode="a" horiz-adv-x="1720" 
d="M827 127q242 0 406 172t164 487q0 287 -144 471q-143 185 -381 185q-229 0 -389 -160q-159 -164 -159 -463q0 -291 135 -491.5t368 -200.5zM1397 0v287q-197 -353 -594 -353q-336 0 -524 234q-201 242 -201 655q0 336 209 582q200 242 528 242q426 0 582 -349v287h221
v-1585h-221z" />
    <glyph glyph-name="b" unicode="b" 
d="M1475 774q0 275 -132 471q-131 197 -434 197q-254 0 -381 -176q-131 -176 -131 -463q0 -271 144 -471q143 -205 405 -205q287 0 410 197q119 192 119 450zM406 0h-218v2773h218v-1475q192 344 557 344q323 0 540 -221q213 -221 213 -651q0 -336 -192 -586
q-197 -250 -557 -250q-389 0 -561 353v-287z" />
    <glyph glyph-name="c" unicode="c" horiz-adv-x="1597" 
d="M1470 1294q-245 152 -507 152q-287 0 -463 -180q-176 -176 -176 -496q0 -291 172 -475q172 -180 458 -180q287 0 541 180v-242q-287 -123 -541 -123q-381 0 -610 209q-246 238 -246 664q0 201 78 368q74 168 201 275q225 201 618 201q242 0 475 -107v-246z" />
    <glyph glyph-name="d" unicode="d" horiz-adv-x="1720" 
d="M336 750q0 -258 123 -451q119 -197 405 -197q262 0 406 205q143 201 143 471q0 287 -127 463q-131 176 -385 176q-303 0 -434 -196.5t-131 -470.5zM1405 -25v287q-172 -352 -561 -352q-361 0 -553 250q-197 250 -197 585q0 426 217 652q213 221 537 221q369 0 557 -344
v1474h217v-2773h-217z" />
    <glyph glyph-name="e" unicode="e" horiz-adv-x="1679" 
d="M1327 971q-16 188 -127 323q-115 136 -369 136q-425 0 -487 -459h983zM1589 786h-1261q0 -262 131 -458q127 -201 409 -201q332 0 533 381l201 -111q-111 -200 -263 -331q-155 -132 -462 -132q-377 0 -582 254q-209 250 -209 594q0 394 201 631q200 234 569 234
q209 0 373 -91q164 -94 262 -286.5t98 -483.5z" />
    <glyph glyph-name="f" unicode="f" horiz-adv-x="983" 
d="M352 0v1397h-299v188h299v463v205q0 250 49 348q50 106 148 160q102 45 205 45q57 0 110 -13q29 -4 66 -12q33 -8 49 -12l-37 -193q-12 9 -74 25q-53 16 -94 16q-110 0 -160 -98q-41 -82 -41 -332v-602h349v-188h-349v-1397h-221z" />
    <glyph glyph-name="g" unicode="g" horiz-adv-x="1720" 
d="M1393 1286v299h221v-1548q0 -832 -758 -832q-569 0 -704 496h274q86 -295 446 -295q250 0 390 148q135 147 135 454v271q-193 -349 -561 -349q-324 0 -537 226q-217 221 -217 647q0 344 197 590q192 245 552 245q390 0 562 -352zM324 799q0 -271 135 -467
q131 -201 430 -201q254 0 385 180q127 181 127 459q0 274 -144 475q-143 201 -405 201q-287 0 -406 -193q-122 -196 -122 -454z" />
    <glyph glyph-name="h" unicode="h" horiz-adv-x="1688" 
d="M172 0v2773h205v-1434q123 156 225 230q103 73 328 73q266 0 421.5 -139t155.5 -430v-1073h-217v975q0 250 -94 360q-98 111 -319 111q-488 0 -488 -623v-823h-217z" />
    <glyph glyph-name="i" unicode="i" horiz-adv-x="614" 
d="M303 2019q-65 0 -123 49q-53 50 -53 123q0 74 49 123t127 49q74 0 127 -45q45 -53 45 -127q0 -73 -49 -123q-49 -49 -123 -49zM201 0v1585h225v-1585h-225z" />
    <glyph glyph-name="j" unicode="j" horiz-adv-x="614" 
d="M311 2019q-65 0 -123 49q-53 50 -53 123q0 74 49 123t127 49q74 0 127 -45q45 -53 45 -127q0 -73 -49 -123q-49 -49 -123 -49zM209 -795v2380h225v-2380h-225z" />
    <glyph glyph-name="k" unicode="k" horiz-adv-x="1679" 
d="M197 0v2773h217v-1892l790 704h307l-852 -708l910 -877h-303l-852 819v-819h-217z" />
    <glyph glyph-name="l" unicode="l" horiz-adv-x="532" 
d="M393 0h-225v2773h225v-2773z" />
    <glyph glyph-name="m" unicode="m" horiz-adv-x="2642" 
d="M377 0h-217v1585h217v-246q176 308 487 308q156 0 279 -54q123 -53 225 -258q213 312 541 312q241 0 397 -148q156 -147 156 -426v-1073h-217v983q0 463 -361 463q-254 0 -356 -148q-107 -151 -107 -462v-836h-217v983q0 467 -364 467q-258 0 -361 -156
q-102 -159 -102 -458v-836z" />
    <glyph glyph-name="n" unicode="n" horiz-adv-x="1638" 
d="M152 0v1585h204v-246q111 148 217 226q103 77 336 77q320 0 451 -167q127 -172 127 -398v-1077h-217v975q0 196 -90 336q-95 135 -324 135q-270 0 -377 -160q-110 -160 -110 -463v-823h-217z" />
    <glyph glyph-name="o" unicode="o" horiz-adv-x="1884" 
d="M1565 786q0 279 -181 467q-180 185 -446 185q-254 0 -438 -193q-185 -192 -185 -463q0 -274 181 -463q180 -188 413 -188q258 0 459 184q197 181 197 471zM74 778q0 234 114 434q111 201 308 316q192 114 430 114q364 0 618 -229t254 -627q0 -393 -262 -622.5
t-623 -229.5q-348 0 -594 222q-245 217 -245 622z" />
    <glyph glyph-name="p" unicode="p" 
d="M1462 807q0 258 -119 455q-122 192 -409 192q-262 0 -406 -201q-143 -200 -143 -475q0 -266 156 -459q155 -192 381 -192q303 0 421 205q119 200 119 475zM393 1581v-287q172 353 561 353q361 0 557 -246q193 -246 193 -590q0 -291 -98.5 -487.5t-262.5 -290.5
q-163 -94 -352 -94q-221 0 -356 86q-139 81 -242 258v-1475h-217v2773h217z" />
    <glyph glyph-name="q" unicode="q" horiz-adv-x="1810" 
d="M344 807q0 -275 123 -475q123 -205 418 -205q225 0 381 192q155 193 155 459q0 275 -143 475q-143 201 -406 201q-286 0 -405 -192q-123 -197 -123 -455zM1413 1581h217v-2773h-217v1475q-188 -344 -598 -344q-295 0 -504 225t-209 647q0 344 197 590q193 246 553 246
q389 0 561 -353v287z" />
    <glyph glyph-name="r" unicode="r" horiz-adv-x="1229" 
d="M909 1642q86 0 201 -28l-66 -213q-24 8 -65 16q-45 4 -82 4q-213 0 -348 -192q-135 -189 -135 -451v-778h-217v1585h217v-319q131 192 237 282q115 94 258 94z" />
    <glyph glyph-name="s" unicode="s" horiz-adv-x="1270" 
d="M61 279l209 122q37 -110 144 -188q106 -82 229 -82q156 0 242 70q82 65 82 159q0 127 -86 218q-86 86 -287 151q-156 57 -246 115q-90 53 -151 155q-62 103 -62 242q0 111 66 205q61 94 180 147q119 54 278 54q340 0 521 -324l-201 -115q-102 238 -344 238
q-123 0 -193 -57q-69 -62 -69 -164q0 -111 90 -181q86 -69 295 -151q200 -74 319 -201q115 -127 115 -299q0 -213 -148 -336q-147 -127 -405 -127q-197 0 -352 95q-160 94 -226 254z" />
    <glyph glyph-name="t" unicode="t" horiz-adv-x="930" 
d="M332 1397h-295v188h295v651h213v-651h323v-188h-323v-1397h-213v1397z" />
    <glyph glyph-name="u" unicode="u" horiz-adv-x="1638" 
d="M365 1585v-815q0 -340 110 -496q107 -143 340 -143q234 0 348 139q107 140 107 500v815h217v-905q0 -406 -189 -586q-159 -160 -479 -160q-287 0 -450 132q-107 94 -164 241q-58 148 -58 373v905h218z" />
    <glyph glyph-name="v" unicode="v" horiz-adv-x="1516" 
d="M29 1585h241l488 -1200l483 1200h246l-729 -1679z" />
    <glyph glyph-name="w" unicode="w" horiz-adv-x="2335" 
d="M659 -94l-639 1679h234l414 -1147l499 1229l500 -1229l410 1147h229l-631 -1679l-504 1253z" />
    <glyph glyph-name="x" unicode="x" horiz-adv-x="1434" 
d="M57 1585h279l381 -581l393 581h270l-536 -762l590 -823h-275l-442 643l-438 -643h-275l590 823z" />
    <glyph glyph-name="y" unicode="y" horiz-adv-x="1434" 
d="M53 1585h238l454 -1241l418 1241h234l-824 -2380h-229l283 803z" />
    <glyph glyph-name="z" unicode="z" horiz-adv-x="1352" 
d="M25 0l888 1389h-823v196h1204l-880 -1392h909v-193h-1298z" />
    <glyph glyph-name="braceleft" unicode="{" horiz-adv-x="1556" 
d="M1352 2638v-160h-49q-263 0 -340 -90q-86 -90 -86 -377v-434q0 -274 -62 -410q-61 -139 -287 -217q217 -73 283 -221q66 -143 66 -414v-426q0 -299 90 -385q94 -86 385 -86v-151q-410 0 -533 127q-127 123 -127 540v422q0 299 -106 406q-107 102 -398 102h-41v164
q316 0 431 102q114 99 114 410v426q0 422 127 549q123 123 533 123z" />
    <glyph glyph-name="bar" unicode="|" horiz-adv-x="1024" 
d="M459 2798h159v-3658h-159v3658z" />
    <glyph glyph-name="braceright" unicode="}" horiz-adv-x="1556" 
d="M147 2638q410 0 533 -123q127 -127 127 -549v-426q0 -311 115 -410q114 -102 430 -102v-164h-41q-291 0 -398 -102q-106 -107 -106 -406v-422q0 -417 -127 -540q-123 -127 -533 -127v151q295 0 385 86q91 86 91 385v426q0 271 65 414q70 148 283 221q-226 78 -287 217
q-61 136 -61 410v434q0 287 -86 377q-78 90 -340 90h-50v160z" />
    <glyph glyph-name="asciitilde" unicode="~" horiz-adv-x="1475" 
d="M967 1991q-62 0 -205 37q-152 32 -180 32q-50 0 -99 -20q-41 -25 -73 -82h-156q41 172 127 242q82 69 184 69q70 0 221 -37q156 -37 177 -37q65 0 106 25q37 25 70 94h155q-61 -180 -143 -250q-78 -73 -184 -73z" />
    <glyph glyph-name="Adieresis" unicode="&#xc0;" horiz-adv-x="2286" 
d="M1139 2232l-463 -1142h913zM12 0l1147 2720l1098 -2720h-254l-340 885h-1069l-348 -885h-234z" />
    <glyph glyph-name="Adieresis" unicode="&#x410;" horiz-adv-x="2286" 
d="M1139 2232l-463 -1142h913zM12 0l1147 2720l1098 -2720h-254l-340 885h-1069l-348 -885h-234z" />
    <glyph glyph-name="Aring" unicode="&#xc1;" 
d="M762 1466q950 0 950 -708q0 -758 -934 -758h-569v2621h1257v-233h-1015v-922h311zM795 201q667 0 667 524q0 299 -155.5 409.5t-528.5 110.5h-327v-1044h344z" />
    <glyph glyph-name="Aring" unicode="&#x411;" 
d="M762 1466q950 0 950 -708q0 -758 -934 -758h-569v2621h1257v-233h-1015v-922h311zM795 201q667 0 667 524q0 299 -155.5 409.5t-528.5 110.5h-327v-1044h344z" />
    <glyph glyph-name="Ccedilla" unicode="&#xc2;" 
d="M209 0v2621h668q352 0 532 -159.5t180 -524.5q0 -442 -401 -561q225 -33 377 -192q147 -164 147 -426q0 -758 -840 -758h-663zM451 1442h352q540 0 540 487q0 479 -499 479h-393v-966zM795 201q368 0 520 135q147 131 147 389q0 283 -143 401q-143 119 -483 119h-385
v-1044h344z" />
    <glyph glyph-name="Ccedilla" unicode="&#x412;" 
d="M209 0v2621h668q352 0 532 -159.5t180 -524.5q0 -442 -401 -561q225 -33 377 -192q147 -164 147 -426q0 -758 -840 -758h-663zM451 1442h352q540 0 540 487q0 479 -499 479h-393v-966zM795 201q368 0 520 135q147 131 147 389q0 283 -143 401q-143 119 -483 119h-385
v-1044h344z" />
    <glyph glyph-name="Eacute" unicode="&#xc3;" horiz-adv-x="1516" 
d="M233 0v2621h1160v-229h-918v-2392h-242z" />
    <glyph glyph-name="Eacute" unicode="&#x413;" horiz-adv-x="1516" 
d="M233 0v2621h1160v-229h-918v-2392h-242z" />
    <glyph glyph-name="Ntilde" unicode="&#xc4;" horiz-adv-x="2507" 
d="M1806 229v2167h-942q0 -999 -61.5 -1413t-229.5 -754h1233zM2126 0h-1782v-524h-238v753h185q205 340 274 717q70 377 70 1290v385h1405v-2392h327v-753h-241v524z" />
    <glyph glyph-name="Ntilde" unicode="&#x414;" horiz-adv-x="2507" 
d="M1806 229v2167h-942q0 -999 -61.5 -1413t-229.5 -754h1233zM2126 0h-1782v-524h-238v753h185q205 340 274 717q70 377 70 1290v385h1405v-2392h327v-753h-241v524z" />
    <glyph glyph-name="Odieresis" unicode="&#xc5;" horiz-adv-x="1638" 
d="M201 0v2621h1298v-225h-1057v-819h1057v-225h-1057v-1131h1057v-221h-1298z" />
    <glyph glyph-name="Odieresis" unicode="&#x415;" horiz-adv-x="1638" 
d="M201 0v2621h1298v-225h-1057v-819h1057v-225h-1057v-1131h1057v-221h-1298z" />
    <glyph glyph-name="Udieresis" unicode="&#xc6;" horiz-adv-x="3318" 
d="M1536 2621h238v-1228l1179 1228h312l-1242 -1257l1303 -1364h-344l-1208 1327v-1327h-238v1327l-1212 -1327h-344l1302 1364l-1241 1257h311l1184 -1228v1228z" />
    <glyph glyph-name="Udieresis" unicode="&#x416;" horiz-adv-x="3318" 
d="M1536 2621h238v-1228l1179 1228h312l-1242 -1257l1303 -1364h-344l-1208 1327v-1327h-238v1327l-1212 -1327h-344l1302 1364l-1241 1257h311l1184 -1228v1228z" />
    <glyph glyph-name="aacute" unicode="&#xc7;" horiz-adv-x="1942" 
d="M946 1245h-192v197h127q262 0 421.5 135t159.5 422q0 209 -135 336t-385 127q-184 0 -332 -95q-151 -98 -278 -348l-189 107q283 516 787 516q418 0 598 -197q176 -200 176 -438q0 -455 -471 -631q221 -37 389 -196.5t168 -446.5q0 -348 -258 -561q-258 -217 -610 -217
q-299 0 -516.5 127t-364.5 446l221 86q94 -204 233.5 -331t434.5 -127q270 0 434 176q164 172 164 397q0 516 -582 516z" />
    <glyph glyph-name="aacute" unicode="&#x417;" horiz-adv-x="1942" 
d="M946 1245h-192v197h127q262 0 421.5 135t159.5 422q0 209 -135 336t-385 127q-184 0 -332 -95q-151 -98 -278 -348l-189 107q283 516 787 516q418 0 598 -197q176 -200 176 -438q0 -455 -471 -631q221 -37 389 -196.5t168 -446.5q0 -348 -258 -561q-258 -217 -610 -217
q-299 0 -516.5 127t-364.5 446l221 86q94 -204 233.5 -331t434.5 -127q270 0 434 176q164 172 164 397q0 516 -582 516z" />
    <glyph glyph-name="agrave" unicode="&#xc8;" horiz-adv-x="2253" 
d="M1847 0v2114l-1663 -2184v2696h217v-2089l1676 2199v-2736h-230z" />
    <glyph glyph-name="agrave" unicode="&#x418;" horiz-adv-x="2253" 
d="M1847 0v2114l-1663 -2184v2696h217v-2089l1676 2199v-2736h-230z" />
    <glyph glyph-name="acircumflex" unicode="&#xc9;" horiz-adv-x="2277" 
d="M1466 3097h222q0 -140 -119 -246q-119 -111 -410 -111q-282 0 -414 111q-135 110 -135 246h234q0 -86 82 -140q82 -53 233 -53q307 0 307 193zM1864 0v2126l-1671 -2196v2696h217v-2089l1675 2199v-2736h-221z" />
    <glyph glyph-name="acircumflex" unicode="&#x419;" horiz-adv-x="2277" 
d="M1466 3097h222q0 -140 -119 -246q-119 -111 -410 -111q-282 0 -414 111q-135 110 -135 246h234q0 -86 82 -140q82 -53 233 -53q307 0 307 193zM1864 0v2126l-1671 -2196v2696h217v-2089l1675 2199v-2736h-221z" />
    <glyph glyph-name="adieresis" unicode="&#xca;" horiz-adv-x="2130" 
d="M225 0v2621h242v-1228l1180 1228h311l-1241 -1257l1302 -1364h-344l-1208 1327v-1327h-242z" />
    <glyph glyph-name="adieresis" unicode="&#x41a;" horiz-adv-x="2130" 
d="M225 0v2621h242v-1228l1180 1228h311l-1241 -1257l1302 -1364h-344l-1208 1327v-1327h-242z" />
    <glyph glyph-name="atilde" unicode="&#xcb;" horiz-adv-x="2351" 
d="M2109 2621v-2621h-237v2400h-1057q0 -835 -12 -1167q-12 -356 -70 -598q-61 -266 -168 -406q-98 -135 -229 -192q-119 -53 -279 -66v246q78 0 164 33q82 33 160 135q82 107 135 426q53 315 53 1290v520h1540z" />
    <glyph glyph-name="atilde" unicode="&#x41b;" horiz-adv-x="2351" 
d="M2109 2621v-2621h-237v2400h-1057q0 -835 -12 -1167q-12 -356 -70 -598q-61 -266 -168 -406q-98 -135 -229 -192q-119 -53 -279 -66v246q78 0 164 33q82 33 160 135q82 107 135 426q53 315 53 1290v520h1540z" />
    <glyph glyph-name="aring" unicode="&#xcc;" horiz-adv-x="2908" 
d="M1446 -94l-918 2093l-200 -1999h-246l356 2732l1004 -2335l1040 2335l340 -2732h-246l-192 1999z" />
    <glyph glyph-name="aring" unicode="&#x41c;" horiz-adv-x="2908" 
d="M1446 -94l-918 2093l-200 -1999h-246l356 2732l1004 -2335l1040 2335l340 -2732h-246l-192 1999z" />
    <glyph glyph-name="ccedilla" unicode="&#xcd;" horiz-adv-x="2343" 
d="M217 0v2621h242v-1065h1421v1065h242v-2621h-242v1352h-1421v-1352h-242z" />
    <glyph glyph-name="ccedilla" unicode="&#x41d;" horiz-adv-x="2343" 
d="M217 0v2621h242v-1065h1421v1065h242v-2621h-242v1352h-1421v-1352h-242z" />
    <glyph glyph-name="eacute" unicode="&#xce;" horiz-adv-x="3080" 
d="M1491 139q319 0 581.5 151.5t413.5 414.5q152 258 152 585q0 283 -127 553q-131 271 -389 447t-623 176q-262 0 -528 -127q-271 -131 -447 -393q-176 -267 -176 -639q0 -312 143.5 -578t409.5 -426q262 -164 590 -164zM1491 -66q-369 0 -688 160q-324 160 -516 471
q-193 312 -193 750q0 409 201 721q201 307 528 475q328 168 684 168q312 0 561 -107q250 -106 435 -295q184 -188 286 -442q103 -258 103 -541q0 -405 -189 -716q-188 -312 -508 -476q-319 -168 -704 -168z" />
    <glyph glyph-name="eacute" unicode="&#x41e;" horiz-adv-x="3080" 
d="M1491 139q319 0 581.5 151.5t413.5 414.5q152 258 152 585q0 283 -127 553q-131 271 -389 447t-623 176q-262 0 -528 -127q-271 -131 -447 -393q-176 -267 -176 -639q0 -312 143.5 -578t409.5 -426q262 -164 590 -164zM1491 -66q-369 0 -688 160q-324 160 -516 471
q-193 312 -193 750q0 409 201 721q201 307 528 475q328 168 684 168q312 0 561 -107q250 -106 435 -295q184 -188 286 -442q103 -258 103 -541q0 -405 -189 -716q-188 -312 -508 -476q-319 -168 -704 -168z" />
    <glyph glyph-name="egrave" unicode="&#xcf;" horiz-adv-x="2269" 
d="M184 2621h1905v-2621h-242v2392h-1421v-2392h-242v2621z" />
    <glyph glyph-name="egrave" unicode="&#x41f;" horiz-adv-x="2269" 
d="M184 2621h1905v-2621h-242v2392h-1421v-2392h-242v2621z" />
    <glyph glyph-name="ecircumflex" unicode="&#xd0;" horiz-adv-x="1720" 
d="M680 1384q348 0 491 119q144 115 144 389q0 516 -656 516h-233v-1024h254zM672 1171h-246v-1171h-242v2621h455q430 0 684 -167q250 -168 250 -545q0 -430 -250 -582q-250 -156 -651 -156z" />
    <glyph glyph-name="ecircumflex" unicode="&#x420;" horiz-adv-x="1720" 
d="M680 1384q348 0 491 119q144 115 144 389q0 516 -656 516h-233v-1024h254zM672 1171h-246v-1171h-242v2621h455q430 0 684 -167q250 -168 250 -545q0 -430 -250 -582q-250 -156 -651 -156z" />
    <glyph glyph-name="edieresis" unicode="&#xd1;" horiz-adv-x="2523" 
d="M1511 2466q-344 0 -598 -144q-254 -143 -389 -405q-139 -266 -139 -614q0 -537 307 -848.5t807 -311.5q438 0 840 312l-4 -279q-181 -110 -393 -172q-218 -61 -455 -61q-311 0 -619 114q-307 115 -524 418q-221 303 -221 815q0 377 143 692q140 312 455 504
q315 193 795 193q442 0 843 -279l-8 -262q-147 127 -344 229q-201 99 -496 99z" />
    <glyph glyph-name="edieresis" unicode="&#x421;" horiz-adv-x="2523" 
d="M1511 2466q-344 0 -598 -144q-254 -143 -389 -405q-139 -266 -139 -614q0 -537 307 -848.5t807 -311.5q438 0 840 312l-4 -279q-181 -110 -393 -172q-218 -61 -455 -61q-311 0 -619 114q-307 115 -524 418q-221 303 -221 815q0 377 143 692q140 312 455 504
q315 193 795 193q442 0 843 -279l-8 -262q-147 127 -344 229q-201 99 -496 99z" />
    <glyph glyph-name="iacute" unicode="&#xd2;" horiz-adv-x="1761" 
d="M762 0v2396h-717v225h1679v-225h-720v-2396h-242z" />
    <glyph glyph-name="iacute" unicode="&#x422;" horiz-adv-x="1761" 
d="M762 0v2396h-717v225h1679v-225h-720v-2396h-242z" />
    <glyph glyph-name="igrave" unicode="&#xd3;" horiz-adv-x="2007" 
d="M1008 1049l647 1572h237l-1089 -2625l-246 4l328 770l-770 1851h250z" />
    <glyph glyph-name="igrave" unicode="&#x423;" horiz-adv-x="2007" 
d="M1008 1049l647 1572h237l-1089 -2625l-246 4l328 770l-770 1851h250z" />
    <glyph glyph-name="icircumflex" unicode="&#xd4;" horiz-adv-x="3195" 
d="M1466 143v2319q-254 0 -508 -127q-258 -127 -426 -385q-172 -262 -172 -643q0 -541 353 -848q348 -307 753 -316zM1704 -74l4 -401h-242v401q-286 0 -602 144q-315 139 -536 454q-222 312 -222 791q0 459 201 766t516 446q312 135 643 135v357h242l-4 -357
q332 0 647 -135q311 -139 512 -446t201 -766q0 -479 -221 -791q-222 -315 -537 -454q-315 -144 -602 -144zM1704 143q410 9 758 316q348 303 348 848q0 381 -168 643q-172 258 -426 385q-258 127 -512 127v-2319z" />
    <glyph glyph-name="icircumflex" unicode="&#x424;" horiz-adv-x="3195" 
d="M1466 143v2319q-254 0 -508 -127q-258 -127 -426 -385q-172 -262 -172 -643q0 -541 353 -848q348 -307 753 -316zM1704 -74l4 -401h-242v401q-286 0 -602 144q-315 139 -536 454q-222 312 -222 791q0 459 201 766t516 446q312 135 643 135v357h242l-4 -357
q332 0 647 -135q311 -139 512 -446t201 -766q0 -479 -221 -791q-222 -315 -537 -454q-315 -144 -602 -144zM1704 143q410 9 758 316q348 303 348 848q0 381 -168 643q-172 258 -426 385q-258 127 -512 127v-2319z" />
    <glyph glyph-name="idieresis" unicode="&#xd5;" 
d="M258 0h-254l787 1376l-713 1245h262l590 -1044l594 1044h258l-721 -1237l794 -1384h-262l-667 1159z" />
    <glyph glyph-name="idieresis" unicode="&#x425;" 
d="M258 0h-254l787 1376l-713 1245h262l590 -1044l594 1044h258l-721 -1237l794 -1384h-262l-667 1159z" />
    <glyph glyph-name="ntilde" unicode="&#xd6;" horiz-adv-x="2597" 
d="M2200 0h-1991v2621h242v-2396h1421v2396h242v-2392h323v-753h-237v524z" />
    <glyph glyph-name="ntilde" unicode="&#x426;" horiz-adv-x="2597" 
d="M2200 0h-1991v2621h242v-2396h1421v2396h242v-2392h323v-753h-237v524z" />
    <glyph glyph-name="oacute" unicode="&#xd7;" horiz-adv-x="2007" 
d="M168 1667v954h242v-954q0 -467 503 -467q439 0 676 356v1065h238v-2621h-238v1307q-303 -303 -671 -303q-373 0 -562 192q-188 188 -188 471z" />
    <glyph glyph-name="oacute" unicode="&#x427;" horiz-adv-x="2007" 
d="M168 1667v954h242v-954q0 -467 503 -467q439 0 676 356v1065h238v-2621h-238v1307q-303 -303 -671 -303q-373 0 -562 192q-188 188 -188 471z" />
    <glyph glyph-name="ograve" unicode="&#xd8;" horiz-adv-x="3072" 
d="M1425 221v2400h238v-2400h1008v2400h237v-2621h-2732v2621h242v-2400h1007z" />
    <glyph glyph-name="ograve" unicode="&#x428;" horiz-adv-x="3072" 
d="M1425 221v2400h238v-2400h1008v2400h237v-2621h-2732v2621h242v-2400h1007z" />
    <glyph glyph-name="ocircumflex" unicode="&#xd9;" horiz-adv-x="3326" 
d="M3015 0h-2798v2621h242v-2400h1007v2400h238v-2400h1008v2400h237v-2400h303v-745h-237v524z" />
    <glyph glyph-name="ocircumflex" unicode="&#x429;" horiz-adv-x="3326" 
d="M3015 0h-2798v2621h242v-2400h1007v2400h238v-2400h1008v2400h237v-2400h303v-745h-237v524z" />
    <glyph glyph-name="odieresis" unicode="&#xda;" horiz-adv-x="2335" 
d="M1008 2621v-1167h409q303 0 496 -90q188 -90 274 -246q82 -160 82 -364q0 -353 -209 -553q-213 -201 -618 -201h-680v2396h-717v225h963zM1442 197h8q569 0 569 548q0 500 -540 500h-471v-1044z" />
    <glyph glyph-name="odieresis" unicode="&#x42a;" horiz-adv-x="2335" 
d="M1008 2621v-1167h409q303 0 496 -90q188 -90 274 -246q82 -160 82 -364q0 -353 -209 -553q-213 -201 -618 -201h-680v2396h-717v225h963zM1442 197h8q569 0 569 548q0 500 -540 500h-471v-1044z" />
    <glyph glyph-name="otilde" unicode="&#xdb;" horiz-adv-x="2531" 
d="M2318 2621v-2621h-237v2621h237zM868 0h-675v2621h241v-1167h410q303 0 495 -90q189 -90 275 -246q82 -160 82 -364q0 -353 -209 -553q-213 -201 -619 -201zM868 197h9q569 0 569 548q0 500 -541 500h-471v-1044z" />
    <glyph glyph-name="otilde" unicode="&#x42b;" horiz-adv-x="2531" 
d="M2318 2621v-2621h-237v2621h237zM868 0h-675v2621h241v-1167h410q303 0 495 -90q189 -90 275 -246q82 -160 82 -364q0 -353 -209 -553q-213 -201 -619 -201zM868 197h9q569 0 569 548q0 500 -541 500h-471v-1044z" />
    <glyph glyph-name="uacute" unicode="&#xdc;" 
d="M868 0h-675v2621h241v-1167h410q303 0 495 -90q189 -90 275 -246q82 -160 82 -364q0 -353 -209 -553q-213 -201 -619 -201zM868 197h9q569 0 569 548q0 500 -541 500h-471v-1044z" />
    <glyph glyph-name="uacute" unicode="&#x42c;" 
d="M868 0h-675v2621h241v-1167h410q303 0 495 -90q189 -90 275 -246q82 -160 82 -364q0 -353 -209 -553q-213 -201 -619 -201zM868 197h9q569 0 569 548q0 500 -541 500h-471v-1044z" />
    <glyph glyph-name="ugrave" unicode="&#xdd;" horiz-adv-x="2515" 
d="M2097 1356h-1290v205h1270q-49 282 -197 483q-147 201 -377 311q-229 111 -532 111q-287 0 -471 -94q-189 -95 -369 -234l-8 262q401 279 844 279q479 0 794 -193q316 -192 459 -504q139 -315 139 -692q0 -512 -217 -815q-221 -303 -528 -418q-307 -114 -619 -114
q-237 0 -450 61q-217 62 -398 172l-4 279q402 -312 840 -312q500 0 807 311.5t307 848.5v53z" />
    <glyph glyph-name="ugrave" unicode="&#x42d;" horiz-adv-x="2515" 
d="M2097 1356h-1290v205h1270q-49 282 -197 483q-147 201 -377 311q-229 111 -532 111q-287 0 -471 -94q-189 -95 -369 -234l-8 262q401 279 844 279q479 0 794 -193q316 -192 459 -504q139 -315 139 -692q0 -512 -217 -815q-221 -303 -528 -418q-307 -114 -619 -114
q-237 0 -450 61q-217 62 -398 172l-4 279q402 -312 840 -312q500 0 807 311.5t307 848.5v53z" />
    <glyph glyph-name="ucircumflex" unicode="&#xde;" horiz-adv-x="3555" 
d="M655 1556q33 250 197 508q160 258 463 439q303 176 733 176q311 0 561 -107q250 -106 434 -295q185 -188 287 -442q102 -258 102 -541q0 -405 -188 -716.5t-508 -475.5q-319 -168 -704 -168q-373 0 -689 164q-319 160 -512 488q-196 327 -196 766h-217v-1352h-242v2621
h242v-1065h237zM2032 139q319 0 581 151.5t414 414.5q151 258 151 585q0 283 -126 553q-132 271 -390 447t-622 176q-262 0 -529 -127q-270 -131 -446 -393q-176 -267 -176 -639q0 -312 143 -578q144 -266 410 -426q262 -164 590 -164z" />
    <glyph glyph-name="ucircumflex" unicode="&#x42e;" horiz-adv-x="3555" 
d="M655 1556q33 250 197 508q160 258 463 439q303 176 733 176q311 0 561 -107q250 -106 434 -295q185 -188 287 -442q102 -258 102 -541q0 -405 -188 -716.5t-508 -475.5q-319 -168 -704 -168q-373 0 -689 164q-319 160 -512 488q-196 327 -196 766h-217v-1352h-242v2621
h242v-1065h237zM2032 139q319 0 581 151.5t414 414.5q151 258 151 585q0 283 -126 553q-132 271 -390 447t-622 176q-262 0 -529 -127q-270 -131 -446 -393q-176 -267 -176 -639q0 -312 143 -578q144 -266 410 -426q262 -164 590 -164z" />
    <glyph glyph-name="udieresis" unicode="&#xdf;" horiz-adv-x="1925" 
d="M57 0l947 1245q-259 17 -472 168q-208 152 -208 492q0 716 843 716h484v-2621h-242v1245h-139l-922 -1245h-291zM1225 1442h184v971h-188q-340 0 -492 -111q-151 -115 -151 -385q0 -299 172 -385q172 -90 475 -90z" />
    <glyph glyph-name="udieresis" unicode="&#x42f;" horiz-adv-x="1925" 
d="M57 0l947 1245q-259 17 -472 168q-208 152 -208 492q0 716 843 716h484v-2621h-242v1245h-139l-922 -1245h-291zM1225 1442h184v971h-188q-340 0 -492 -111q-151 -115 -151 -385q0 -299 172 -385q172 -90 475 -90z" />
    <glyph glyph-name="dagger" unicode="&#x2020;" horiz-adv-x="2753" 
d="M1503 -496h-250v2114h-909v229h909v996h250v-996h910v-229h-910v-2114z" />
    <glyph glyph-name="degree" unicode="&#xb0;" horiz-adv-x="1270" 
d="M614 2466q-172 0 -290 -123q-119 -127 -119 -303q0 -156 123 -287q118 -123 282 -123q168 0 295 119q123 119 123 295q0 180 -119 299q-123 123 -295 123zM614 1503q-217 0 -376 160q-164 152 -164 373q0 229 155 393q156 160 385 160q230 0 385 -156q156 -156 156 -389
q0 -225 -156 -381q-159 -160 -385 -160z" />
    <glyph glyph-name="cent" horiz-adv-x="1597" 
d="M836 -66q-299 25 -492 205q-246 238 -246 664q0 201 78 368q74 168 201 275q188 168 459 192v1184h159v-1175q242 0 475 -107v-246q-225 140 -475 152v-1331q262 12 500 180v-242q-250 -106 -500 -123v-766h-159v770zM836 123v1315q-218 -49 -336 -172
q-176 -176 -176 -496q0 -291 172 -475q143 -148 340 -172z" />
    <glyph glyph-name="sterling" horiz-adv-x="2220" 
d="M1827 324l127 -197q-230 -180 -475 -180q-115 0 -234 41q-41 8 -254 73q-127 37 -237 37q-226 0 -463 -151l-119 180q205 123 315 291q115 168 115 348q0 209 -106 430h-324v152h258q-20 49 -70 200q-36 86 -49 172q-20 90 -20 160q0 328 233 541q234 221 578 221
q266 0 438 -98q168 -95 266 -275q90 -196 115 -434h-258q-4 279 -143 434q-148 148 -406 148q-254 0 -409 -148q-156 -155 -156 -389q0 -205 151 -532h680v-152h-622q73 -221 73 -344q0 -152 -57 -287q-53 -127 -205 -315q189 49 275 49q119 0 319 -61q197 -58 316 -58
q172 0 348 144z" />
    <glyph glyph-name="section" unicode="&#xa7;" horiz-adv-x="1802" 
d="M307 1286q0 -188 283 -356q24 -12 180 -107q152 -94 201 -123q98 -61 209 -135q282 94 282 340q0 209 -307 389q-205 123 -364 217q-160 95 -209 123q-275 -123 -275 -348zM1507 1999h-233q0 209 -103 315q-102 111 -286 111q-172 0 -267 -78q-98 -78 -98 -217
q0 -111 70 -193q69 -77 282 -196q353 -197 406 -230q422 -262 422 -593q0 -328 -361 -488q70 -37 131 -139q58 -103 58 -242q0 -233 -176 -381q-176 -147 -451 -147q-319 0 -495 168q-173 164 -173 491h246q0 -450 422 -450q164 0 270 82q107 82 107 213q0 208 -299 385
q-37 20 -266 155q-234 131 -324 197q-315 229 -315 512q0 168 98 303q102 139 262 192q-160 160 -160 349q0 233 172 372q168 144 443 144q307 0 459 -164q159 -164 159 -471z" />
    <glyph glyph-name="bullet" unicode="&#xb7;" horiz-adv-x="1630" 
d="M360 1393q0 200 140 336q139 131 327 131q123 0 238 -62q106 -57 176 -168q62 -110 62 -237q0 -189 -140 -328q-139 -139 -336 -139q-188 0 -327.5 139t-139.5 328z" />
    <glyph glyph-name="paragraph" unicode="&#xb6;" horiz-adv-x="1884" 
d="M852 -438v1659q-348 0 -565 176q-226 176 -226 512q0 360 238 532q242 172 606 172h914v-119h-238v-2932h-147v2932h-435v-2932h-147z" />
    <glyph glyph-name="germandbls" unicode="&#xb2;" horiz-adv-x="1098" 
d="M406 0v2621h237v-2621h-237zM520 2753q-176 0 -176 172t176 172q78 0 127 -41q45 -45 45 -131q0 -70 -49 -119q-53 -53 -123 -53z" />
    <glyph glyph-name="registered" unicode="&#xae;" horiz-adv-x="2908" 
d="M238 1327q0 -512 360 -872q365 -365 864 -365q504 0 869 365q356 364 356 872q0 516 -356.5 876.5t-868.5 360.5q-504 0 -864 -360.5t-360 -876.5zM2834 1327q0 -565 -401 -967q-401 -401 -971 -401q-565 0 -966 401q-402 402 -402 967q0 574 401.5 975t966.5 401
q570 0 971 -401t401 -975zM1049 1978v-635h413q451 0 451 320q0 315 -414 315h-450zM877 2101h655q270 0 410 -110q143 -111 143 -320q0 -282 -287 -385q242 -74 258 -385q17 -311 53 -373h-176q-28 45 -28 168q0 328 -62 430q-61 103 -385 103h-409v-701h-172v1573z" />
    <glyph glyph-name="copyright" unicode="&#xa9;" horiz-adv-x="2867" 
d="M221 1323q0 -500 361 -872q356 -365 860 -365t860 360q356 365 356 877t-356 872q-356 361 -860 361q-500 0 -860 -361q-361 -360 -361 -872zM2806 1323q0 -561 -402 -963q-401 -401 -962 -401q-570 0 -967 397q-401 402 -401 967t401 967q402 401 967 401
q569 0 966 -397q398 -398 398 -971zM1446 512q-328 0 -541 225q-213 226 -213 578q0 373 213 598q217 229 545 229q287 0 479 -151q197 -152 221 -394h-147q-45 189 -184 291q-152 107 -369 107q-258 0 -418 -185q-164 -188 -164 -495q0 -291 160 -471t422 -180
q246 0 397 135q156 135 185 372h143q0 -290 -209 -475q-209 -184 -520 -184z" />
    <glyph glyph-name="trademark" horiz-adv-x="2458" 
d="M426 1221v1216h-360v115h852v-115h-369v-1216h-123zM1729 1171l-467 1065l-99 -1015h-127l181 1388l512 -1188l528 1188l172 -1388h-127l-98 1015z" />
    <glyph glyph-name="acute" horiz-adv-x="3891" 
d="M614 2478q-159 0 -241 -135q-86 -139 -86 -385q0 -492 319 -492q316 0 316 512q0 500 -308 500zM70 1962q0 283 135 483q131 201 409 201q250 0 385 -180q131 -180 131 -484q0 -327 -143 -507q-147 -181 -385 -181q-225 0 -377 181q-155 180 -155 487zM446 -66l1508 2708
h192l-1499 -2708h-201zM1999 1122q-144 0 -225.5 -139t-81.5 -381q0 -491 319 -491q316 0 316 512q0 499 -328 499zM1475 606q0 283 135 484q131 200 409 200q250 0 385 -180q131 -180 131 -483q0 -328 -143 -508q-147 -180 -385 -180q-225 0 -377 180q-155 180 -155 487z
M3252 1122q-291 0 -291 -520q0 -491 320 -491q315 0 315 512q0 499 -344 499zM2744 606q0 283 123 484q119 200 352 200q295 0 443 -176q143 -176 143 -487q0 -328 -143 -508q-148 -180 -385 -180q-225 0 -377 180q-156 180 -156 487z" />
    <glyph glyph-name="dieresis" unicode="&#xbd;" horiz-adv-x="1434" 
d="M156 1794l544 -549l557 557l86 -94l-557 -553l557 -549l-86 -90l-552 557l-549 -557l-90 90l548 553l-544 545z" />
    <glyph glyph-name="notequal" horiz-adv-x="2621" 
d="M1040 692h-794v148h856l213 503h-1069v140h1130l467 1097h193l-467 -1097h819v-140h-881l-217 -503h1098v-148h-1159l-479 -1122h-189z" />
    <glyph glyph-name="AE" horiz-adv-x="1516" 
d="M233 0v2621h1160v-229h-918v-2392h-242zM283 3424h168l348 -446l344 446h164l-381 -626h-262z" />
    <glyph glyph-name="Oslash" horiz-adv-x="1147" 
d="M164 0v1585h852v-196h-635v-1389h-217zM70 2413h168l348 -447l344 447h164l-381 -627h-262z" />
    <glyph glyph-name="infinity" horiz-adv-x="2322" 
d="M1081 1053q0 155 -102 262q-102 110 -258 110q-98 0 -184 -49q-82 -49 -131.5 -135t-49.5 -188q0 -152 107 -254q106 -107 246 -107q151 0 266 107q106 94 106 254zM1925 1053q0 102 -49 188q-41 86 -131 135q-78 49 -184 49q-152 0 -258 -110q-111 -111 -111 -262
q0 -86 49 -176q45 -78 131 -132q82 -53 184 -53q148 0 263 107q106 94 106 254zM2036 1053q0 -201 -135 -336q-140 -139 -340 -139q-136 0 -242 69q-111 58 -176 184q-66 -122 -176 -184q-111 -69 -246 -69q-127 0 -234 61q-106 66 -176 172q-65 107 -65 229q0 213 135 353
q131 143 340 143q147 0 250 -70q102 -73 164 -204q49 118 168 200q102 74 258 74q208 0 344 -135q131 -135 131 -348z" />
    <glyph glyph-name="plusminus" unicode="&#xb1;" horiz-adv-x="1679" 
d="M102 324h1475v-123h-1475v123zM102 1212h672v635h127v-635h676v-118h-676v-623h-127v623h-672v118z" />
    <glyph glyph-name="lessequal" horiz-adv-x="2580" 
d="M2351 2380v-160l-1872 -762l1872 -758v-155l-2109 860v111zM238 1155l2109 -856v-156l-2109 861v151z" />
    <glyph glyph-name="greaterequal" horiz-adv-x="2580" 
d="M238 2380l2109 -864v-111l-2109 -860v155l1871 758l-1871 762v160zM2351 1155v-151l-2109 -861v156z" />
    <glyph glyph-name="yen" horiz-adv-x="2007" 
d="M885 680h-807v147h807v377l-74 123h-733v139h647l-709 1155h287l676 -1155h57l676 1155h270l-700 -1155h680v-139h-766l-74 -123v-377h840v-147h-840v-680h-237v680z" />
    <glyph glyph-name="mu" horiz-adv-x="2048" 
d="M1606 2191v-1622v-53q0 -192 24 -254q25 -65 111 -65q33 0 49 12q20 8 65 41v-78l-327 -217q-4 -4 -12 -4q-9 0 -17 -4q-94 0 -127 106q-20 70 -49 279q-156 -197 -274 -299q-119 -107 -254 -107q-308 0 -410 414q0 -61 29 -463q8 -94 20 -188q12 -99 21 -181
q8 -81 8 -139q0 -287 -160 -287q-151 0 -151 263q0 114 45 454t61 639q25 443 25 860v893h307v-1380q0 -274 74 -463q73 -188 225 -188q151 0 246 114q94 111 163 250v1667h308z" />
    <glyph glyph-name="partialdiff" horiz-adv-x="1860" 
d="M356 811q0 -332 140 -508q135 -172 401 -172t406 176q135 172 135 504q0 209 -66 356q-65 152 -188 238t-287 86q-160 0 -283 -86q-127 -90 -192 -238q-66 -147 -66 -356zM1642 807q0 -262 -86 -455q-94 -196 -262 -295q-164 -102 -397 -102q-344 0 -549 229
q-196 230 -196 623q0 250 98 446q94 193 262 295q168 107 385 107q328 0 533 -238q0 144 -74 303q-70 160 -189 254q-131 99 -274 99q-148 0 -234 -50q-81 -45 -184 -155l-90 160q197 217 496 217q323 0 544 -299q217 -312 217 -1139z" />
    <glyph glyph-name="summation" horiz-adv-x="1327" 
d="M827 598v2023h238v-2056q0 -311 -123 -467q-123 -155 -446 -155q-340 0 -496 258l172 151q111 -200 328 -200q188 0 258 106q69 107 69 340z" />
    <glyph glyph-name="product" horiz-adv-x="2458" 
d="M385 1356v-53q0 -537 307 -848.5t807 -311.5q438 0 840 312l-4 -279q-181 -110 -393 -172q-218 -61 -455 -61q-311 0 -619 114q-307 115 -524 418q-221 303 -221 815q0 377 143 692q140 312 455 504q315 193 795 193q442 0 843 -279l-8 -262q-147 127 -344 229
q-201 99 -496 99q-446 0 -737 -242q-295 -246 -368 -663h1269v-205h-1290z" />
    <glyph glyph-name="pi" horiz-adv-x="1597" 
d="M315 770q0 -291 172 -475q172 -180 459 -180t541 180v-242q-287 -123 -541 -123q-381 0 -610 209q-246 238 -246 664q0 201 78 368q74 168 201 275q225 201 618 201q242 0 475 -107v-246q-245 152 -508 152q-286 0 -462 -180q-115 -115 -160 -312h844v-184h-861z" />
    <glyph glyph-name="integral" unicode="&#xaf;" horiz-adv-x="1098" 
d="M406 0v2621h237v-2621h-237zM307 2753q-65 0 -123 49q-53 49 -53 123q0 73 49 122q49 50 127 50q74 0 127 -45q45 -54 45 -127q0 -74 -49 -123t-123 -49zM786 2753q-65 0 -122 49q-54 49 -54 123q0 73 49 122q50 50 127 50q172 0 172 -172t-172 -172z" />
    <glyph glyph-name="ordfeminine" unicode="&#xbf;" horiz-adv-x="1065" 
d="M406 0v1585h225v-1585h-225zM307 2019q-65 0 -123 49q-53 50 -53 123q0 74 49 123t127 49q74 0 127 -45q45 -53 45 -127q0 -73 -49 -123q-49 -49 -123 -49zM762 2019q-74 0 -123 49q-49 50 -49 123q0 74 49 123t123 49t127 -45q49 -41 49 -127q0 -73 -49 -123
q-49 -49 -127 -49z" />
    <glyph glyph-name="ordmasculine" horiz-adv-x="3482" 
d="M2089 2621v-1167h410q303 0 495 -90q189 -90 275 -246q82 -160 82 -364q0 -353 -209 -553q-213 -201 -619 -201h-676v2400h-983q0 -835 -12 -1167q-12 -356 -70 -598q-61 -266 -168 -406q-98 -135 -229 -192q-119 -53 -279 -66v246q78 0 164 33q82 33 160 135
q82 107 135 426q53 315 53 1290v520h1471zM2523 197h8q570 0 570 548q0 500 -541 500h-471v-1044z" />
    <glyph glyph-name="Omega" horiz-adv-x="2499" 
d="M1278 0v1389h-631q0 -1008 -205 -1291q-114 -164 -393 -164v209q238 0 303 316q58 299 58 1126h1081v-647h364q205 0 369 -123q160 -123 160 -348q0 -188 -111 -328q-114 -139 -360 -139h-635zM1491 193h369q274 0 274 282q0 135 -86 201q-86 61 -201 61h-356v-544z" />
    <glyph glyph-name="ae" horiz-adv-x="3244" 
d="M1561 0v1352h-1143v-1352h-242v2621h242v-1065h1143v1065h241v-1167h410q303 0 495 -90q189 -90 275 -246q82 -160 82 -364q0 -353 -209 -553q-213 -201 -619 -201h-675zM2236 197h9q569 0 569 548q0 500 -541 500h-471v-1044z" />
    <glyph glyph-name="oslash" horiz-adv-x="2355" 
d="M1110 0v770h-741v-770h-217v1585h217v-631h741v631h221v-647h365q205 0 368 -123q160 -123 160 -348q0 -209 -123 -336q-127 -131 -348 -131h-643zM1331 193h369q123 0 201 69q73 70 73 213q0 135 -86 201q-86 61 -200 61h-357v-544z" />
    <glyph glyph-name="questiondown" horiz-adv-x="688" 
d="M311 2019q-65 0 -123 49q-53 50 -53 123q0 74 49 123t127 49q74 0 127 -45q45 -53 45 -127q0 -73 -49 -123q-49 -49 -123 -49zM209 -795v2380h225v-2380h-225z" />
    <glyph glyph-name="exclamdown" horiz-adv-x="1638" 
d="M57 438l209 111q131 -414 529 -414q229 0 381 139q151 140 151 410q0 274 -164 410q-49 45 -286 184q-242 139 -349 213q-163 119 -262 250q-98 127 -98 311q0 279 188 455q185 172 496 172q176 0 311 -53.5t267 -278.5l-185 -111q-135 234 -414 234q-172 0 -294 -111
q-123 -110 -123 -315q0 -266 291 -430q221 -115 327 -172q107 -58 189 -115q348 -237 348 -627q0 -192 -78 -364q-78 -176 -246 -287q-172 -115 -446 -115q-226 0 -410 95q-188 94 -332 409z" />
    <glyph glyph-name="logicalnot" unicode="&#xac;" horiz-adv-x="1638" 
d="M1315 0v705h-1196v184h1397v-889h-201z" />
    <glyph glyph-name="radical" horiz-adv-x="2130" 
d="M57 1585h426l488 -1200l819 2232h246l-1065 -2711l-635 1511h-279v168z" />
    <glyph glyph-name="florin" unicode="&#x192;" horiz-adv-x="1655" 
d="M1085 2040h340l-20 -152h-348l-246 -1417q-45 -283 -66 -352q-16 -74 -81 -164q-189 -270 -562 -270q-106 0 -147 28l37 201q37 -12 98 -12q189 0 287 73q106 74 147 197q41 115 74 328l250 1388h-344l37 152h336q139 766 614 766h41q0 -8 24 -8l-32 -230q-13 4 -29 4
h-33q-123 0 -196 -78q-86 -94 -115 -180q-29 -102 -66 -274z" />
    <glyph glyph-name="approxequal" horiz-adv-x="2486" 
d="M418 1077l-152 115q217 434 537 434q168 0 442 -156q279 -151 426 -151q107 0 201 70q102 90 184 245l148 -118q-205 -435 -553 -435q-74 0 -193 37q-90 37 -233 111q-111 69 -230 114q-90 37 -200 37q-213 0 -377 -303zM418 492l-152 114q209 434 537 434
q176 0 442 -151.5t426 -151.5q115 0 201 70q90 61 184 242l148 -111q-99 -217 -242 -324q-139 -110 -311 -110q-95 0 -193 37q-106 41 -233 114q-148 82 -230 107q-86 41 -200 41q-213 0 -377 -311z" />
    <glyph glyph-name="Delta" horiz-adv-x="2228" 
d="M1098 2138l-721 -1954h1462zM1851 0h-1470l-180 397l778 1966h242l770 -1982z" />
    <glyph glyph-name="guillemotleft" unicode="&#xab;" horiz-adv-x="1393" 
d="M1274 1405v-242l-361 -319l361 -316v-258l-553 475v181zM664 1405v-242l-357 -319l357 -316v-258l-545 475v181z" />
    <glyph glyph-name="guillemotright" unicode="&#xbb;" horiz-adv-x="1393" 
d="M119 1405l553 -479v-181l-553 -475v258l360 316l-360 319v242zM729 1405l545 -479v-181l-545 -475v258l356 316l-356 319v242z" />
    <glyph glyph-name="ellipsis" unicode="&#xbe;" horiz-adv-x="1819" 
d="M528 0h-344v315h344v-315zM1090 0h-345v315h345v-315zM1651 0h-344v315h344v-315z" />
    <glyph glyph-name="Agrave" horiz-adv-x="795" 
d="M676 1405v-242l-361 -319l361 -316v-258l-553 475v181z" />
    <glyph glyph-name="Atilde" horiz-adv-x="795" 
d="M127 1405l553 -479v-181l-553 -475v258l360 316l-360 319v242z" />
    <glyph glyph-name="Otilde" unicode="&#x152;" horiz-adv-x="2130" 
d="M225 0v2621h242v-1228l1180 1228h311l-1241 -1257l1302 -1364h-344l-1208 1327v-1327h-242zM504 3314h168l348 -447l344 447h164l-381 -627h-262z" />
    <glyph glyph-name="OE" horiz-adv-x="1679" 
d="M160 0v1585h217v-704l790 704h308l-852 -708l909 -877h-303l-852 819v-819h-217zM270 2466h168l348 -447l344 447h164l-381 -627h-262z" />
    <glyph glyph-name="oe" unicode="&#x153;" horiz-adv-x="1270" 
d="M61 279l209 122q37 -110 144 -188q106 -82 229 -82q156 0 242 70q82 65 82 159q0 127 -86 218q-86 86 -287 151q-156 57 -246 115q-90 53 -151 155q-62 103 -62 242q0 111 66 205q61 94 180 147q119 54 278 54q340 0 521 -324l-201 -115q-102 238 -344 238
q-123 0 -193 -57q-69 -62 -69 -164q0 -111 90 -181q86 -69 295 -151q200 -74 319 -201q115 -127 115 -299q0 -213 -148 -336q-147 -127 -405 -127q-197 0 -352 95q-160 94 -226 254z" />
    <glyph glyph-name="endash" horiz-adv-x="983" 
d="M139 721v192h721v-192h-721z" />
    <glyph glyph-name="emdash" horiz-adv-x="2122" 
d="M127 532v193h1860v-193h-1860z" />
    <glyph glyph-name="quotedblleft" horiz-adv-x="1364" 
d="M1147 1765h-344v275q0 258 77.5 376.5t266.5 180.5v-156q-90 -37 -119 -102q-37 -66 -37 -193v-61h156v-320zM557 1765h-344v275q0 254 78 373q74 122 266 184v-156q-94 -37 -131 -102q-41 -66 -41 -193v-61h172v-320z" />
    <glyph glyph-name="quotedblright" horiz-adv-x="1364" 
d="M213 2601h344v-274q0 -259 -78 -377.5t-266 -180.5v156q90 37 119 103q37 69 37 192v61h-156v320zM803 2601h344v-274q0 -254 -78 -373q-74 -123 -266 -185v156q94 37 131 103q41 65 41 192v61h-172v320z" />
    <glyph glyph-name="quoteleft" horiz-adv-x="791" 
d="M557 1765h-344v275q0 254 78 373q74 122 266 184v-156q-94 -37 -131 -102q-41 -66 -41 -193v-61h172v-320z" />
    <glyph glyph-name="quoteright" horiz-adv-x="791" 
d="M213 2601h344v-274q0 -254 -78 -373q-73 -123 -266 -185v156q94 37 131 103q41 65 41 192v61h-172v320z" />
    <glyph glyph-name="divide" unicode="&#xbc;" horiz-adv-x="1761" 
d="M1126 512q0 -49 -36.5 -86t-85.5 -37q-46 0 -82.5 37t-36.5 86t37 86q32 33 82 33q45 0 86 -33q36 -29 36 -86zM1126 1778q0 -49 -32 -82q-37 -37 -90 -37q-50 0 -82 37q-37 33 -37 82q0 45 33 86q32 37 86 37q49 0 90 -33q32 -41 32 -90zM242 1208h1523v-127h-1523v127z
" />
    <glyph glyph-name="lozenge" unicode="&#xa3;" horiz-adv-x="1364" 
d="M254 315h344v-274q0 -258 -78 -377t-266 -180v156q90 36 119 102q37 65 37 192v62h-156v319zM844 315h344v-274q0 -254 -78 -373q-74 -123 -266 -184v156q94 36 131 102q41 65 41 192v62h-172v319z" />
    <glyph glyph-name="ydieresis" unicode="&#xa1;" horiz-adv-x="1925" 
d="M573 2925h795v-132h-795v132zM958 1049l648 1572h237l-1089 -2625l-246 4l328 770l-770 1851h249z" />
    <glyph glyph-name="Ydieresis" unicode="&#xa2;" horiz-adv-x="1434" 
d="M319 1892h795v-127h-795v127zM41 1585h238l454 -1241l418 1241h233l-823 -2380h-229l282 803z" />
    <glyph glyph-name="fraction" horiz-adv-x="2253" 
d="M1065 -516q0 102 -21 201q-24 94 -61 163q-37 66 -94 111q-58 41 -111 41h-590v2621h242v-2392h1417v2392h242v-2621h-590q-110 0 -196 -156q-91 -159 -91 -360h-147z" />
    <glyph glyph-name="currency" unicode="&#x2219;" horiz-adv-x="1622" 
d="M1102 0q-90 0 -160 -131q-74 -131 -74 -307h-114q0 176 -70 307t-164 131h-364v1585h217v-1380h856v1380h221v-1585h-348z" />
    <glyph glyph-name="guilsinglleft" unicode="&#xb9;" horiz-adv-x="3891" 
d="M233 0v2732l1856 -2200v2089h221v-2695l-1851 2192v-2118h-226zM3170 2466q-172 0 -291 -123q-118 -127 -118 -303q0 -156 123 -287q118 -123 282 -123q168 0 295 119q123 119 123 295q0 180 -119 299q-123 123 -295 123zM3170 1503q-217 0 -377 160q-163 152 -163 373
q0 229 155 393q156 160 385 160q230 0 385 -156q156 -156 156 -389q0 -225 -156 -381q-159 -160 -385 -160zM2638 1253h1081v-131h-1081v131z" />
    <glyph glyph-name="guilsinglright" unicode="&#xa8;" horiz-adv-x="1638" 
d="M614 2802q-73 0 -122.5 49t-49.5 123q0 73 49.5 122.5t122.5 49.5q74 0 127 -45q50 -41 50 -127q0 -74 -50 -123q-49 -49 -127 -49zM1098 2802q-66 0 -123 49q-53 49 -53 123q0 73 49 122.5t127 49.5q73 0 127 -45q45 -54 45 -127q0 -74 -49.5 -123t-122.5 -49zM193 0
v2621h1298v-225h-1057v-819h1057v-225h-1057v-1131h1057v-221h-1298z" />
    <glyph glyph-name="fi" unicode="&#xb8;" horiz-adv-x="1679" 
d="M1098 2019q-74 0 -123 49q-49 50 -49 123q0 74 49 123t123 49q73 0 127 -45q49 -41 49 -127q0 -73 -49 -123q-49 -49 -127 -49zM578 2019q-66 0 -123 49q-54 50 -54 123q0 74 49.5 123t127.5 49q73 0 127 -45q45 -53 45 -127q0 -73 -50 -123q-49 -49 -122 -49zM1327 971
q-16 188 -127 323q-115 136 -369 136q-425 0 -487 -459h983zM1589 786h-1261q0 -262 131 -458q127 -201 409 -201q332 0 533 381l201 -111q-111 -200 -263 -331q-155 -132 -462 -132q-377 0 -582 254q-209 250 -209 594q0 394 201 631q200 234 569 234q209 0 373 -91
q164 -94 262 -286.5t98 -483.5z" />
    <glyph glyph-name="fl" unicode="&#xff;" horiz-adv-x="1602" 
d="M1024 721l-766 -721h-274l774 725q-230 8 -369 102q-143 95 -143 308q0 200 147 327q144 123 385 123h652v-1585h-226v721h-180zM1204 1384h-422q-307 0 -307 -249q0 -246 320 -246h409v495z" />
    <glyph glyph-name="fl" unicode="&#x44f;" horiz-adv-x="1602" 
d="M1024 721l-766 -721h-274l774 725q-230 8 -369 102q-143 95 -143 308q0 200 147 327q144 123 385 123h652v-1585h-226v721h-180zM1204 1384h-422q-307 0 -307 -249q0 -246 320 -246h409v495z" />
    <glyph glyph-name="daggerdbl" unicode="&#xe0;" horiz-adv-x="1753" 
d="M827 127q242 0 406 172t164 487q0 287 -144 471q-143 185 -381 185q-229 0 -389 -160q-159 -164 -159 -463q0 -291 135 -491.5t368 -200.5zM1397 0v287q-197 -353 -594 -353q-336 0 -524 234q-201 242 -201 655q0 336 209 582q200 242 528 242q426 0 582 -349v287h221
v-1585h-221z" />
    <glyph glyph-name="daggerdbl" unicode="&#x430;" horiz-adv-x="1753" 
d="M827 127q242 0 406 172t164 487q0 287 -144 471q-143 185 -381 185q-229 0 -389 -160q-159 -164 -159 -463q0 -291 135 -491.5t368 -200.5zM1397 0v287q-197 -353 -594 -353q-336 0 -524 234q-201 242 -201 655q0 336 209 582q200 242 528 242q426 0 582 -349v287h221
v-1585h-221z" />
    <glyph glyph-name="periodcentered" unicode="&#xe1;" horiz-adv-x="1970" 
d="M295 1241q237 393 655 393q369 0 606 -221q238 -221 238 -627q0 -393 -250 -622.5t-618 -229.5q-414 0 -631 254t-217 746q0 676 237 979q234 303 635 303q152 0 217 16q62 17 62 86h237q0 -131 -102 -204.5t-393 -73.5q-328 0 -500 -217q-176 -221 -176 -582zM311 782
q0 -307 185 -479q180 -172 438 -172q250 0 438 188q189 189 189 467q0 254 -160 455q-160 197 -467 197q-270 0 -447 -201q-176 -201 -176 -455z" />
    <glyph glyph-name="periodcentered" unicode="&#x431;" horiz-adv-x="1970" 
d="M295 1241q237 393 655 393q369 0 606 -221q238 -221 238 -627q0 -393 -250 -622.5t-618 -229.5q-414 0 -631 254t-217 746q0 676 237 979q234 303 635 303q152 0 217 16q62 17 62 86h237q0 -131 -102 -204.5t-393 -73.5q-328 0 -500 -217q-176 -221 -176 -582zM311 782
q0 -307 185 -479q180 -172 438 -172q250 0 438 188q189 189 189 467q0 254 -160 455q-160 197 -467 197q-270 0 -447 -201q-176 -201 -176 -455z" />
    <glyph glyph-name="quotesinglbase" unicode="&#xe2;" horiz-adv-x="1421" 
d="M729 1384h-364v-450h364q119 0 197 61q78 62 78 172q0 123 -66 172q-70 45 -209 45zM147 1585h541q266 0 406 -86q135 -90 135 -295q0 -299 -307 -360q364 -58 364 -418q0 -176 -139 -299q-143 -127 -414 -127h-586v1585zM365 737v-544h360q172 0 254 65q78 66 78 225
q0 254 -291 254h-401z" />
    <glyph glyph-name="quotesinglbase" unicode="&#x432;" horiz-adv-x="1421" 
d="M729 1384h-364v-450h364q119 0 197 61q78 62 78 172q0 123 -66 172q-70 45 -209 45zM147 1585h541q266 0 406 -86q135 -90 135 -295q0 -299 -307 -360q364 -58 364 -418q0 -176 -139 -299q-143 -127 -414 -127h-586v1585zM365 737v-544h360q172 0 254 65q78 66 78 225
q0 254 -291 254h-401z" />
    <glyph glyph-name="quotedblbase" unicode="&#xe3;" horiz-adv-x="1147" 
d="M164 0v1585h852v-196h-635v-1389h-217z" />
    <glyph glyph-name="quotedblbase" unicode="&#x433;" horiz-adv-x="1147" 
d="M164 0v1585h852v-196h-635v-1389h-217z" />
    <glyph glyph-name="perthousand" unicode="&#xe4;" horiz-adv-x="1823" 
d="M639 1389v-197q0 -315 -53 -598q-58 -287 -144 -401h856v1196h-659zM434 1585h1086v-1392h221v-611h-221v418h-1258v-418h-217v611h139q131 122 193 368q57 246 57 647v377z" />
    <glyph glyph-name="perthousand" unicode="&#x434;" horiz-adv-x="1823" 
d="M639 1389v-197q0 -315 -53 -598q-58 -287 -144 -401h856v1196h-659zM434 1585h1086v-1392h221v-611h-221v418h-1258v-418h-217v611h139q131 122 193 368q57 246 57 647v377z" />
    <glyph glyph-name="Acircumflex" unicode="&#xe5;" horiz-adv-x="1679" 
d="M1327 971q-16 188 -127 323q-115 136 -369 136q-425 0 -487 -459h983zM1589 786h-1261q0 -262 131 -458q127 -201 409 -201q332 0 533 381l201 -111q-111 -200 -263 -331q-155 -132 -462 -132q-377 0 -582 254q-209 250 -209 594q0 394 201 631q200 234 569 234
q209 0 373 -91q164 -94 262 -286.5t98 -483.5z" />
    <glyph glyph-name="Acircumflex" unicode="&#x435;" horiz-adv-x="1679" 
d="M1327 971q-16 188 -127 323q-115 136 -369 136q-425 0 -487 -459h983zM1589 786h-1261q0 -262 131 -458q127 -201 409 -201q332 0 533 381l201 -111q-111 -200 -263 -331q-155 -132 -462 -132q-377 0 -582 254q-209 250 -209 594q0 394 201 631q200 234 569 234
q209 0 373 -91q164 -94 262 -286.5t98 -483.5z" />
    <glyph glyph-name="Ecircumflex" unicode="&#xe6;" horiz-adv-x="2540" 
d="M2224 0l-848 815v-815h-221v819l-852 -819h-303l913 877l-852 708h308l786 -704v704h221v-700l783 700h307l-852 -708l913 -877h-303z" />
    <glyph glyph-name="Ecircumflex" unicode="&#x436;" horiz-adv-x="2540" 
d="M2224 0l-848 815v-815h-221v819l-852 -819h-303l913 877l-852 708h308l786 -704v704h221v-700l783 700h307l-852 -708l913 -877h-303z" />
    <glyph glyph-name="Aacute" unicode="&#xe7;" horiz-adv-x="1352" 
d="M49 274l144 144q73 -119 192 -193q119 -73 270 -73q148 0 271 81q123 78 123 238q0 291 -312 291h-147v164h135q90 0 188 61q95 62 95 213q0 103 -74 184q-78 78 -250 78q-139 0 -242 -37q-102 -41 -217 -204l-127 122q197 291 582 291q242 0 397 -110q156 -111 156 -287
q0 -262 -352 -381q405 -45 405 -397q0 -197 -180 -344.5t-438 -147.5q-430 0 -619 307z" />
    <glyph glyph-name="Aacute" unicode="&#x437;" horiz-adv-x="1352" 
d="M49 274l144 144q73 -119 192 -193q119 -73 270 -73q148 0 271 81q123 78 123 238q0 291 -312 291h-147v164h135q90 0 188 61q95 62 95 213q0 103 -74 184q-78 78 -250 78q-139 0 -242 -37q-102 -41 -217 -204l-127 122q197 291 582 291q242 0 397 -110q156 -111 156 -287
q0 -262 -352 -381q405 -45 405 -397q0 -197 -180 -344.5t-438 -147.5q-430 0 -619 307z" />
    <glyph glyph-name="Edieresis" unicode="&#xe8;" horiz-adv-x="1671" 
d="M164 -94v1679h213v-1175l1122 1261v-1671h-217v1135z" />
    <glyph glyph-name="Edieresis" unicode="&#x438;" horiz-adv-x="1671" 
d="M164 -94v1679h213v-1175l1122 1261v-1671h-217v1135z" />
    <glyph glyph-name="Egrave" unicode="&#xe9;" horiz-adv-x="1671" 
d="M614 2232q0 -139 213 -139q209 0 209 139h168q0 -286 -377 -286q-159 0 -270 77q-111 78 -111 209h168zM156 -94v1679h213v-1175l1122 1261v-1671h-217v1147z" />
    <glyph glyph-name="Egrave" unicode="&#x439;" horiz-adv-x="1671" 
d="M614 2232q0 -139 213 -139q209 0 209 139h168q0 -286 -377 -286q-159 0 -270 77q-111 78 -111 209h168zM156 -94v1679h213v-1175l1122 1261v-1671h-217v1147z" />
    <glyph glyph-name="Iacute" unicode="&#xea;" horiz-adv-x="1679" 
d="M164 0v1585h217v-704l790 704h308l-852 -708l909 -877h-303l-852 819v-819h-217z" />
    <glyph glyph-name="Iacute" unicode="&#x43a;" horiz-adv-x="1679" 
d="M164 0v1585h217v-704l790 704h308l-852 -708l909 -877h-303l-852 819v-819h-217z" />
    <glyph glyph-name="Icircumflex" unicode="&#xeb;" horiz-adv-x="1708" 
d="M1552 0h-213v1389h-692q0 -508 -33 -816q-36 -307 -155 -471q-99 -131 -258 -131q-70 0 -156 25v209q29 -4 78 -4q180 12 229 258q58 299 58 1126h1142v-1585z" />
    <glyph glyph-name="Icircumflex" unicode="&#x43b;" horiz-adv-x="1708" 
d="M1552 0h-213v1389h-692q0 -508 -33 -816q-36 -307 -155 -471q-99 -131 -258 -131q-70 0 -156 25v209q29 -4 78 -4q180 12 229 258q58 299 58 1126h1142v-1585z" />
    <glyph glyph-name="Idieresis" unicode="&#xec;" horiz-adv-x="2163" 
d="M1077 -70l-557 1229l-233 -1159h-217l409 1688l602 -1344l602 1344l406 -1688h-213l-234 1159z" />
    <glyph glyph-name="Idieresis" unicode="&#x43c;" horiz-adv-x="2163" 
d="M1077 -70l-557 1229l-233 -1159h-217l409 1688l602 -1344l602 1344l406 -1688h-213l-234 1159z" />
    <glyph glyph-name="Igrave" unicode="&#xed;" horiz-adv-x="1638" 
d="M393 954h856v631h221v-1585h-221v770h-856v-770h-217v1585h217v-631z" />
    <glyph glyph-name="Igrave" unicode="&#x43d;" horiz-adv-x="1638" 
d="M393 954h856v631h221v-1585h-221v770h-856v-770h-217v1585h217v-631z" />
    <glyph glyph-name="Oacute" unicode="&#xee;" horiz-adv-x="1884" 
d="M1565 786q0 279 -181 467q-180 185 -446 185q-254 0 -438 -193q-185 -192 -185 -463q0 -274 181 -463q180 -188 413 -188q258 0 459 184q197 181 197 471zM74 778q0 234 114 434q111 201 308 316q192 114 430 114q364 0 618 -229t254 -627q0 -393 -262 -622.5
t-623 -229.5q-348 0 -594 222q-245 217 -245 622z" />
    <glyph glyph-name="Oacute" unicode="&#x43e;" horiz-adv-x="1884" 
d="M1565 786q0 279 -181 467q-180 185 -446 185q-254 0 -438 -193q-185 -192 -185 -463q0 -274 181 -463q180 -188 413 -188q258 0 459 184q197 181 197 471zM74 778q0 234 114 434q111 201 308 316q192 114 430 114q364 0 618 -229t254 -627q0 -393 -262 -622.5
t-623 -229.5q-348 0 -594 222q-245 217 -245 622z" />
    <glyph glyph-name="Ocircumflex" unicode="&#xef;" horiz-adv-x="1614" 
d="M1229 1384h-856v-1384h-217v1585h1294v-1585h-221v1384z" />
    <glyph glyph-name="Ocircumflex" unicode="&#x43f;" horiz-adv-x="1614" 
d="M1229 1384h-856v-1384h-217v1585h1294v-1585h-221v1384z" />
    <glyph glyph-name="apple" unicode="&#xf0;" 
d="M1462 807q0 258 -119 455q-122 192 -409 192q-262 0 -406 -201q-143 -200 -143 -475q0 -266 156 -459q155 -192 381 -192q303 0 421 205q119 200 119 475zM393 1581v-287q172 353 561 353q361 0 557 -246q193 -246 193 -590q0 -291 -98.5 -487.5t-262.5 -290.5
q-163 -94 -352 -94q-221 0 -356 86q-139 81 -242 258v-1475h-217v2773h217z" />
    <glyph glyph-name="apple" unicode="&#x440;" 
d="M1462 807q0 258 -119 455q-122 192 -409 192q-262 0 -406 -201q-143 -200 -143 -475q0 -266 156 -459q155 -192 381 -192q303 0 421 205q119 200 119 475zM393 1581v-287q172 353 561 353q361 0 557 -246q193 -246 193 -590q0 -291 -98.5 -487.5t-262.5 -290.5
q-163 -94 -352 -94q-221 0 -356 86q-139 81 -242 258v-1475h-217v2773h217z" />
    <glyph glyph-name="Ograve" unicode="&#xf1;" horiz-adv-x="1597" 
d="M1470 1294q-245 152 -507 152q-287 0 -463 -180q-176 -176 -176 -496q0 -291 172 -475q172 -180 458 -180q287 0 541 180v-242q-287 -123 -541 -123q-381 0 -610 209q-246 238 -246 664q0 201 78 368q74 168 201 275q225 201 618 201q242 0 475 -107v-246z" />
    <glyph glyph-name="Ograve" unicode="&#x441;" horiz-adv-x="1597" 
d="M1470 1294q-245 152 -507 152q-287 0 -463 -180q-176 -176 -176 -496q0 -291 172 -475q172 -180 458 -180q287 0 541 180v-242q-287 -123 -541 -123q-381 0 -610 209q-246 238 -246 664q0 201 78 368q74 168 201 275q225 201 618 201q242 0 475 -107v-246z" />
    <glyph glyph-name="Uacute" unicode="&#xf2;" horiz-adv-x="1376" 
d="M37 1384v201h1282v-201h-533v-1384h-221v1384h-528z" />
    <glyph glyph-name="Uacute" unicode="&#x442;" horiz-adv-x="1376" 
d="M37 1384v201h1282v-201h-533v-1384h-221v1384h-528z" />
    <glyph glyph-name="Ucircumflex" unicode="&#xf3;" horiz-adv-x="1434" 
d="M53 1585h238l454 -1241l418 1241h234l-824 -2380h-229l283 803z" />
    <glyph glyph-name="Ucircumflex" unicode="&#x443;" horiz-adv-x="1434" 
d="M53 1585h238l454 -1241l418 1241h234l-824 -2380h-229l283 803z" />
    <glyph glyph-name="Ugrave" unicode="&#xf4;" horiz-adv-x="2130" 
d="M934 123v1311q-160 0 -295 -74q-139 -78 -221 -230q-86 -151 -86 -352q0 -270 188 -463q185 -192 414 -192zM1163 -856h-229v795q-225 0 -414 94q-192 94 -311 282q-119 189 -119 467q0 373 241.5 619t602.5 246v671h229v-671q230 0 426 -111q193 -111 307 -311
q111 -205 111 -443q0 -405 -246 -622q-250 -221 -598 -221v-795zM1163 123q160 0 295 86q135 82 221 233q86 152 86 336q0 201 -82 352q-86 152 -221 230q-139 74 -299 74v-1311z" />
    <glyph glyph-name="Ugrave" unicode="&#x444;" horiz-adv-x="2130" 
d="M934 123v1311q-160 0 -295 -74q-139 -78 -221 -230q-86 -151 -86 -352q0 -270 188 -463q185 -192 414 -192zM1163 -856h-229v795q-225 0 -414 94q-192 94 -311 282q-119 189 -119 467q0 373 241.5 619t602.5 246v671h229v-671q230 0 426 -111q193 -111 307 -311
q111 -205 111 -443q0 -405 -246 -622q-250 -221 -598 -221v-795zM1163 123q160 0 295 86q135 82 221 233q86 152 86 336q0 201 -82 352q-86 152 -221 230q-139 74 -299 74v-1311z" />
    <glyph glyph-name="dotlessi" unicode="&#xf5;" horiz-adv-x="1434" 
d="M57 1585h279l381 -581l393 581h270l-536 -762l590 -823h-275l-442 643l-438 -643h-275l590 823z" />
    <glyph glyph-name="dotlessi" unicode="&#x445;" horiz-adv-x="1434" 
d="M57 1585h279l381 -581l393 581h270l-536 -762l590 -823h-275l-442 643l-438 -643h-275l590 823z" />
    <glyph glyph-name="circumflex" unicode="&#xf6;" horiz-adv-x="1884" 
d="M1503 0h-1335v1585h213v-1388h909v1388h213v-1392h221v-611h-221v418z" />
    <glyph glyph-name="circumflex" unicode="&#x446;" horiz-adv-x="1884" 
d="M1503 0h-1335v1585h213v-1388h909v1388h213v-1392h221v-611h-221v418z" />
    <glyph glyph-name="tilde" unicode="&#xf7;" horiz-adv-x="1597" 
d="M1217 930v655h221v-1585h-221v725q-205 -197 -504 -197q-221 0 -394 127q-176 127 -176 328v602h217v-602q0 -135 111 -209q111 -78 262 -78q291 0 484 234z" />
    <glyph glyph-name="tilde" unicode="&#x447;" horiz-adv-x="1597" 
d="M1217 930v655h221v-1585h-221v725q-205 -197 -504 -197q-221 0 -394 127q-176 127 -176 328v602h217v-602q0 -135 111 -209q111 -78 262 -78q291 0 484 234z" />
    <glyph glyph-name="macron" unicode="&#xf8;" horiz-adv-x="2642" 
d="M2462 0h-2302v1585h217v-1388h827v1388h217v-1388h824v1388h217v-1585z" />
    <glyph glyph-name="macron" unicode="&#x448;" horiz-adv-x="2642" 
d="M2462 0h-2302v1585h217v-1388h827v1388h217v-1388h824v1388h217v-1585z" />
    <glyph glyph-name="breve" unicode="&#xf9;" horiz-adv-x="2847" 
d="M2462 193h245v-611h-221v418h-2326v1585h217v-1388h827v1388h217v-1388h824v1388h217v-1392z" />
    <glyph glyph-name="breve" unicode="&#x449;" horiz-adv-x="2847" 
d="M2462 193h245v-611h-221v418h-2326v1585h217v-1388h827v1388h217v-1388h824v1388h217v-1392z" />
    <glyph glyph-name="dotaccent" unicode="&#xfa;" horiz-adv-x="1774" 
d="M729 193h369q274 0 274 282q0 135 -86 201q-86 61 -201 61h-356v-544zM729 1585v-647h365q204 0 368 -123q160 -123 160 -348q0 -188 -111 -328q-114 -139 -360 -139h-643v1380h-475v205h696z" />
    <glyph glyph-name="dotaccent" unicode="&#x44a;" horiz-adv-x="1774" 
d="M729 193h369q274 0 274 282q0 135 -86 201q-86 61 -201 61h-356v-544zM729 1585v-647h365q204 0 368 -123q160 -123 160 -348q0 -188 -111 -328q-114 -139 -360 -139h-643v1380h-475v205h696z" />
    <glyph glyph-name="ring" unicode="&#xfb;" horiz-adv-x="1946" 
d="M1765 0h-225v1585h225v-1585zM799 0h-639v1585h217v-647h364q205 0 369 -123q160 -123 160 -348q0 -188 -111 -328q-115 -139 -360 -139zM377 193h368q275 0 275 282q0 135 -86 201q-86 61 -201 61h-356v-544z" />
    <glyph glyph-name="ring" unicode="&#x44b;" horiz-adv-x="1946" 
d="M1765 0h-225v1585h225v-1585zM799 0h-639v1585h217v-647h364q205 0 369 -123q160 -123 160 -348q0 -188 -111 -328q-115 -139 -360 -139zM377 193h368q275 0 275 282q0 135 -86 201q-86 61 -201 61h-356v-544z" />
    <glyph glyph-name="cedilla" unicode="&#xfc;" horiz-adv-x="1450" 
d="M799 0h-639v1585h217v-647h364q205 0 369 -123q160 -123 160 -348q0 -188 -111 -328q-115 -139 -360 -139zM377 193h368q275 0 275 282q0 135 -86 201q-86 61 -201 61h-356v-544z" />
    <glyph glyph-name="cedilla" unicode="&#x44c;" horiz-adv-x="1450" 
d="M799 0h-639v1585h217v-647h364q205 0 369 -123q160 -123 160 -348q0 -188 -111 -328q-115 -139 -360 -139zM377 193h368q275 0 275 282q0 135 -86 201q-86 61 -201 61h-356v-544z" />
    <glyph glyph-name="hungarumlaut" unicode="&#xfd;" horiz-adv-x="1655" 
d="M1266 770h-860v184h843q-45 197 -159 312q-177 180 -463 180q-262 0 -508 -152v246q233 107 475 107q393 0 618 -201q127 -107 205 -266q74 -164 74 -377q0 -426 -246 -664q-229 -209 -610 -209q-254 0 -541 123v242q254 -180 541 -180t459 180q172 184 172 475z" />
    <glyph glyph-name="hungarumlaut" unicode="&#x44d;" horiz-adv-x="1655" 
d="M1266 770h-860v184h843q-45 197 -159 312q-177 180 -463 180q-262 0 -508 -152v246q233 107 475 107q393 0 618 -201q127 -107 205 -266q74 -164 74 -377q0 -426 -246 -664q-229 -209 -610 -209q-254 0 -541 123v242q254 -180 541 -180t459 180q172 184 172 475z" />
    <glyph glyph-name="ogonek" unicode="&#xfe;" horiz-adv-x="2421" 
d="M598 770h-209v-770h-225v1585h225v-631h221q62 299 295 496q230 192 541 192q364 0 618 -229t254 -627q0 -393 -262 -622.5t-622 -229.5q-349 0 -590 218q-246 217 -246 618zM2085 786q0 279 -180 467q-181 185 -447 185q-254 0 -438 -193q-184 -192 -184 -463
q0 -274 180 -463q180 -188 414 -188q258 0 458 184q197 181 197 471z" />
    <glyph glyph-name="ogonek" unicode="&#x44e;" horiz-adv-x="2421" 
d="M598 770h-209v-770h-225v1585h225v-631h221q62 299 295 496q230 192 541 192q364 0 618 -229t254 -627q0 -393 -262 -622.5t-622 -229.5q-349 0 -590 218q-246 217 -246 618zM2085 786q0 279 -180 467q-181 185 -447 185q-254 0 -438 -193q-184 -192 -184 -463
q0 -274 180 -463q180 -188 414 -188q258 0 458 184q197 181 197 471z" />
    <glyph glyph-name="caron" unicode="&#xa4;" horiz-adv-x="1966" 
d="M401 1147q0 -238 168 -406q168 -172 402 -172q237 0 409 172q168 168 168 406q0 233 -168 409q-163 173 -409 173q-234 0 -402 -168q-168 -177 -168 -414zM74 365l303 303q-172 241 -172 483q0 225 172 471l-311 307l122 119l308 -307q114 82 241 131q111 37 242 37
q127 0 233 -33q99 -37 234 -135l319 307l115 -119l-307 -307q168 -229 168 -475q0 -127 -33 -234q-29 -98 -131 -245l307 -303l-115 -123l-311 311q-213 -172 -487 -172q-226 0 -471 172l-307 -311z" />
    <glyph glyph-name="_extra1" horiz-adv-x="1475" 
d="M209 0v2621h242v-2400h897v-221h-1139z" />
    <glyph glyph-name="_extra2" horiz-adv-x="1270" 
d="M61 279l209 122q37 -110 144 -188q106 -82 229 -82q156 0 242 70q82 65 82 159q0 127 -86 218q-86 86 -287 151q-156 57 -246 115q-90 53 -151 155q-62 103 -62 242q0 111 66 205q61 94 180 147q119 54 278 54q340 0 521 -324l-201 -115q-102 238 -344 238
q-123 0 -193 -57q-69 -62 -69 -164q0 -111 90 -181q86 -69 295 -151q200 -74 319 -201q115 -127 115 -299q0 -213 -148 -336q-147 -127 -405 -127q-197 0 -352 95q-160 94 -226 254z" />
    <glyph glyph-name="brokenbar" unicode="&#xa6;" horiz-adv-x="1024" 
d="M459 2798h159v-3658h-159v3658z" />
    <glyph glyph-name="softhyphen" unicode="&#xad;" 
d="M4 -713h1831v-147h-1831v147z" />
    <glyph glyph-name="threesuperior" unicode="&#xb3;" horiz-adv-x="614" 
d="M303 2019q-65 0 -123 49q-53 50 -53 123q0 74 49 123t127 49q74 0 127 -45q45 -53 45 -127q0 -73 -49 -123q-49 -49 -123 -49zM201 0v1585h225v-1585h-225z" />
    <glyph glyph-name="acute.0" unicode="&#xb4;" horiz-adv-x="791" 
d="M213 2601h344v-274q0 -254 -78 -373q-73 -123 -266 -185v156q94 37 131 103q41 65 41 192v61h-172v320z" />
    <glyph glyph-name="Ydieresis.0" unicode="&#x178;" horiz-adv-x="1434" 
d="M319 1892h795v-127h-795v127zM41 1585h238l454 -1241l418 1241h233l-823 -2380h-229l282 803z" />
    <glyph glyph-name="circumflex.0" unicode="&#x2c6;" horiz-adv-x="1884" 
d="M1503 0h-1335v1585h213v-1388h909v1388h213v-1392h221v-611h-221v418z" />
    <glyph glyph-name="tilde.0" unicode="&#x2dc;" horiz-adv-x="1597" 
d="M1217 930v655h221v-1585h-221v725q-205 -197 -504 -197q-221 0 -394 127q-176 127 -176 328v602h217v-602q0 -135 111 -209q111 -78 262 -78q291 0 484 234z" />
    <glyph glyph-name="endash.0" unicode="&#x2013;" horiz-adv-x="983" 
d="M139 721v192h721v-192h-721z" />
    <glyph glyph-name="emdash.0" unicode="&#x2014;" horiz-adv-x="2122" 
d="M127 532v193h1860v-193h-1860z" />
    <glyph glyph-name="quoteleft.0" unicode="&#x2018;" horiz-adv-x="791" 
d="M557 1765h-344v275q0 254 78 373q74 122 266 184v-156q-94 -37 -131 -102q-41 -66 -41 -193v-61h172v-320z" />
    <glyph glyph-name="quoteright.0" unicode="&#x2019;" horiz-adv-x="791" 
d="M213 2601h344v-274q0 -254 -78 -373q-73 -123 -266 -185v156q94 37 131 103q41 65 41 192v61h-172v320z" />
    <glyph glyph-name="quotesinglbase.0" unicode="&#x201a;" horiz-adv-x="1421" 
d="M729 1384h-364v-450h364q119 0 197 61q78 62 78 172q0 123 -66 172q-70 45 -209 45zM147 1585h541q266 0 406 -86q135 -90 135 -295q0 -299 -307 -360q364 -58 364 -418q0 -176 -139 -299q-143 -127 -414 -127h-586v1585zM365 737v-544h360q172 0 254 65q78 66 78 225
q0 254 -291 254h-401z" />
    <glyph glyph-name="quotedblleft.0" unicode="&#x201c;" horiz-adv-x="1364" 
d="M1147 1765h-344v275q0 258 77.5 376.5t266.5 180.5v-156q-90 -37 -119 -102q-37 -66 -37 -193v-61h156v-320zM557 1765h-344v275q0 254 78 373q74 122 266 184v-156q-94 -37 -131 -102q-41 -66 -41 -193v-61h172v-320z" />
    <glyph glyph-name="quotedblright.0" unicode="&#x201d;" horiz-adv-x="1364" 
d="M213 2601h344v-274q0 -259 -78 -377.5t-266 -180.5v156q90 37 119 103q37 69 37 192v61h-156v320zM803 2601h344v-274q0 -254 -78 -373q-74 -123 -266 -185v156q94 37 131 103q41 65 41 192v61h-172v320z" />
    <glyph glyph-name="quotedblbase.0" unicode="&#x201e;" horiz-adv-x="1147" 
d="M164 0v1585h852v-196h-635v-1389h-217z" />
    <glyph glyph-name="daggerdbl.0" unicode="&#x2021;" horiz-adv-x="1753" 
d="M827 127q242 0 406 172t164 487q0 287 -144 471q-143 185 -381 185q-229 0 -389 -160q-159 -164 -159 -463q0 -291 135 -491.5t368 -200.5zM1397 0v287q-197 -353 -594 -353q-336 0 -524 234q-201 242 -201 655q0 336 209 582q200 242 528 242q426 0 582 -349v287h221
v-1585h-221z" />
    <glyph glyph-name="bullet.0" unicode="&#x2022;" horiz-adv-x="1630" 
d="M360 1393q0 200 140 336q139 131 327 131q123 0 238 -62q106 -57 176 -168q62 -110 62 -237q0 -189 -140 -328q-139 -139 -336 -139q-188 0 -327.5 139t-139.5 328z" />
    <glyph glyph-name="ellipsis.0" unicode="&#x2026;" horiz-adv-x="1819" 
d="M528 0h-344v315h344v-315zM1090 0h-345v315h345v-315zM1651 0h-344v315h344v-315z" />
    <glyph glyph-name="perthousand.0" unicode="&#x2030;" horiz-adv-x="1823" 
d="M639 1389v-197q0 -315 -53 -598q-58 -287 -144 -401h856v1196h-659zM434 1585h1086v-1392h221v-611h-221v418h-1258v-418h-217v611h139q131 122 193 368q57 246 57 647v377z" />
    <glyph glyph-name="guilsinglleft.0" unicode="&#x2039;" horiz-adv-x="3891" 
d="M233 0v2732l1856 -2200v2089h221v-2695l-1851 2192v-2118h-226zM3170 2466q-172 0 -291 -123q-118 -127 -118 -303q0 -156 123 -287q118 -123 282 -123q168 0 295 119q123 119 123 295q0 180 -119 299q-123 123 -295 123zM3170 1503q-217 0 -377 160q-163 152 -163 373
q0 229 155 393q156 160 385 160q230 0 385 -156q156 -156 156 -389q0 -225 -156 -381q-159 -160 -385 -160zM2638 1253h1081v-131h-1081v131z" />
    <glyph glyph-name="guilsinglright.0" unicode="&#x203a;" horiz-adv-x="1638" 
d="M614 2802q-73 0 -122.5 49t-49.5 123q0 73 49.5 122.5t122.5 49.5q74 0 127 -45q50 -41 50 -127q0 -74 -50 -123q-49 -49 -127 -49zM1098 2802q-66 0 -123 49q-53 49 -53 123q0 73 49 122.5t127 49.5q73 0 127 -45q45 -54 45 -127q0 -74 -49.5 -123t-122.5 -49zM193 0
v2621h1298v-225h-1057v-819h1057v-225h-1057v-1131h1057v-221h-1298z" />
    <glyph glyph-name="trademark.0" unicode="&#x2122;" horiz-adv-x="2458" 
d="M426 1221v1216h-360v115h852v-115h-369v-1216h-123zM1729 1171l-467 1065l-99 -1015h-127l181 1388l512 -1188l528 1188l172 -1388h-127l-98 1015z" />
  </font>
</defs>
</svg>
